<?xml version="1.0" encoding="UTF-8"?>
<svg version="1.1" xmlns="http://www.w3.org/2000/svg" width="500" height="500">
<path d="M0 0 C165 0 330 0 500 0 C500 165 500 330 500 500 C335 500 170 500 0 500 C0 335 0 170 0 0 Z " fill="#E1A8F0" transform="translate(0,0)"/>
<path d="M0 0 C6.93 0 13.86 0 21 0 C20.67 5.94 20.34 11.88 20 18 C21.65 16.68 23.3 15.36 25 14 C29.83971121 12.95689267 33.94111354 13.49016578 38.375 15.625 C43.93122267 20.6520586 45.49968589 24.74544546 46 32 C59.58355103 33.67597991 59.58355103 33.67597991 73 32 C69.95786733 30.47893366 66.71952428 30.62570662 63.375 30.4375 C62.66859375 30.39431641 61.9621875 30.35113281 61.234375 30.30664062 C59.48981463 30.20055249 57.74493303 30.09977111 56 30 C55.505 27.03 55.505 27.03 55 24 C52.36 23.34 49.72 22.68 47 22 C47 14.74 47 7.48 47 0 C62.18 0 77.36 0 93 0 C93 6.93 93 13.86 93 21 C90.36 21.66 87.72 22.32 85 23 C85 23.66 85 24.32 85 25 C85.556875 25.0825 86.11375 25.165 86.6875 25.25 C89 26 89 26 91.125 28 C94.91306858 30.63517814 97.80472297 30.66137525 102.3125 30.75 C103.05306641 30.77964844 103.79363281 30.80929688 104.55664062 30.83984375 C106.37052046 30.91005845 108.18526278 30.95735048 110 31 C110.33 31.99 110.66 32.98 111 34 C111.474375 33.505 111.94875 33.01 112.4375 32.5 C116.16002963 30.32095827 119.77382564 30.42708552 124 31 C127.75744212 32.51488423 127.75744212 32.51488423 129 35 C129.33 33.68 129.66 32.36 130 31 C132.45840605 30.97308315 134.91651882 30.95320198 137.375 30.9375 C138.07367188 30.92912109 138.77234375 30.92074219 139.4921875 30.91210938 C144.7734375 30.88671875 144.7734375 30.88671875 147 32 C147 26.39 147 20.78 147 15 C153.6 15 160.2 15 167 15 C167.33 15.66 167.66 16.32 168 17 C168.474375 16.505 168.94875 16.01 169.4375 15.5 C173.23064985 13.2796196 176.7036758 13.43125583 181 14 C186.32349429 16.31456274 188.52783785 19.96099714 191 25 C191.4125 24.45730469 191.825 23.91460937 192.25 23.35546875 C196.28640684 18.35500939 199.55700301 15.11576518 206 14 C212.81755191 13.35596676 220.10873772 13.05626244 226 17 C228.90363911 19.82353872 231.49414291 22.82102704 234 26 C234.3403125 25.46890625 234.680625 24.9378125 235.03125 24.390625 C238.5874432 19.20766257 241.77314459 15.57891738 248 14 C256.18218488 13.07262131 264.05360472 13.16259522 271 18 C273.51482739 20.37545141 275.44394882 22.88789763 277 26 C277.33 17.42 277.66 8.84 278 0 C284.6 0 291.2 0 298 0 C298 5.94 298 11.88 298 18 C299.65 16.68 301.3 15.36 303 14 C307.89019116 12.94601268 311.97460553 13.49662453 316.4375 15.6875 C318.96604396 17.96935675 320.48352367 19.96704733 322 23 C322.680625 22.071875 323.36125 21.14375 324.0625 20.1875 C326.59236365 16.73768593 329.96785637 15.15727949 334 14 C336.99392394 13.62330843 339.92398427 13.62392372 342.9375 13.6875 C343.69740234 13.68427734 344.45730469 13.68105469 345.24023438 13.67773438 C350.45193966 13.72669147 354.98991088 14.56936022 360 16 C360.01981934 16.59014893 360.03963867 17.18029785 360.06005859 17.78833008 C360.15534659 20.46350096 360.26500939 23.13789498 360.375 25.8125 C360.42140625 27.2056543 360.42140625 27.2056543 360.46875 28.62695312 C360.50742187 29.51962891 360.54609375 30.41230469 360.5859375 31.33203125 C360.63306885 32.56530151 360.63306885 32.56530151 360.68115234 33.82348633 C360.88373622 36.28952937 360.88373622 36.28952937 363 39 C363.43072377 43.4508123 363.60515919 45.86532652 361.5 49.8125 C355.28688868 55.24897241 348.30258722 55.45284774 340.4375 55.3125 C339.0772168 55.31733398 339.0772168 55.31733398 337.68945312 55.32226562 C332.41684662 55.28020712 327.98860335 54.7176124 323 53 C322.67 50.69 322.34 48.38 322 46 C321.443125 46.928125 320.88625 47.85625 320.3125 48.8125 C317.90468579 52.13137905 316.7818089 53.52016173 313 55 C308.18470745 55.57211397 304.28738539 55.61794499 299.875 53.5 C299.25625 53.005 298.6375 52.51 298 52 C297.67 52.66 297.34 53.32 297 54 C290.73 54 284.46 54 278 54 C277.67 50.37 277.34 46.74 277 43 C276.443125 43.9075 275.88625 44.815 275.3125 45.75 C272.38744217 49.86089208 269.15854467 52.22763689 265 55 C248.21683857 56.51136323 248.21683857 56.51136323 241.51171875 52.27734375 C238.02206728 49.32872351 235.46946965 46.40840896 234 42 C233.64808594 42.60328125 233.29617188 43.2065625 232.93359375 43.828125 C232.43988281 44.62734375 231.94617188 45.4265625 231.4375 46.25 C230.96183594 47.03890625 230.48617188 47.8278125 229.99609375 48.640625 C226.31111131 52.99625982 222.29849207 55.108647 216.6953125 55.6015625 C215.17232273 55.63931168 213.64830766 55.64636905 212.125 55.625 C211.332146 55.61879639 210.53929199 55.61259277 209.72241211 55.60620117 C203.21110291 55.36856215 198.57159613 53.85589937 194 49 C191.9375 46.125 191.9375 46.125 191 44 C190.67 47.63 190.34 51.26 190 55 C183.4 55 176.8 55 170 55 C170 48.4 170 41.8 170 35 C169.01 35 168.02 35 167 35 C165.34714041 38.30571917 165.8994882 41.995378 165.9375 45.625 C165.9684375 49.770625 165.9684375 49.770625 166 54 C159.73 54 153.46 54 147 54 C147 53.34 147 52.68 147 52 C145.02 52 143.04 52 141 52 C140.87625 50.865625 140.7525 49.73125 140.625 48.5625 C140.41875 47.386875 140.2125 46.21125 140 45 C139.34 44.67 138.68 44.34 138 44 C138.33 46.64 138.66 49.28 139 52 C136.03 52 133.06 52 130 52 C129.67 50.68 129.34 49.36 129 48 C128.54625 48.474375 128.0925 48.94875 127.625 49.4375 C124.71762835 52.23304966 122.09690603 52.40191302 118.10546875 52.34375 C114.21478557 51.70853642 112.60842857 49.92652961 110 47 C109.125 43.6875 109.125 43.6875 109 41 C108.34 41 107.68 41 107 41 C107 42.32 107 43.64 107 45 C105.02 45 103.04 45 101 45 C101 47.31 101 49.62 101 52 C98.03 52 95.06 52 92 52 C92 50.68 92 49.36 92 48 C91.48050781 48.33773437 90.96101562 48.67546875 90.42578125 49.0234375 C89.72839844 49.46945313 89.03101563 49.91546875 88.3125 50.375 C87.62800781 50.81585938 86.94351563 51.25671875 86.23828125 51.7109375 C81.90074455 54.20899528 78.37615089 55.25388397 73.359375 55.265625 C72.28816406 55.26820313 71.21695313 55.27078125 70.11328125 55.2734375 C69.00339844 55.26570313 67.89351563 55.25796875 66.75 55.25 C65.10837891 55.26160156 65.10837891 55.26160156 63.43359375 55.2734375 C56.97398686 55.25796539 51.24516207 54.66010637 45 53 C44.505 50.03 44.505 50.03 44 47 C43.59007812 47.49371094 43.18015625 47.98742187 42.7578125 48.49609375 C42.21898437 49.13675781 41.68015625 49.77742188 41.125 50.4375 C40.59132813 51.07558594 40.05765625 51.71367187 39.5078125 52.37109375 C37.54308058 54.49361502 36.45738327 54.95507185 33.57421875 55.23828125 C25.70231954 55.44067108 25.70231954 55.44067108 21.8125 53 C21.214375 52.34 20.61625 51.68 20 51 C19.67 51.99 19.34 52.98 19 54 C12.73 54 6.46 54 0 54 C0 48.72 0 43.44 0 38 C-0.66 38 -1.32 38 -2 38 C-2 42.62 -2 47.24 -2 52 C-7.62412985 54.83848701 -12.17334708 55.51990199 -18.4375 55.5 C-19.24509766 55.52835938 -20.05269531 55.55671875 -20.88476562 55.5859375 C-27.11267679 55.60601135 -31.15437576 53.88742559 -36 50 C-41.26016544 44.46298375 -42.47317687 39.24658849 -42.3125 31.78515625 C-41.67516237 26.10488463 -39.3135062 21.90367218 -35.0625 18.125 C-28.09400073 13.28971479 -21.30645287 13.0801894 -13 14 C-7.33077438 16.10099939 -4.80013085 19.24983644 -1 24 C-0.67 16.08 -0.34 8.16 0 0 Z " fill="#201A19" transform="translate(129,182)"/>
<path d="M0 0 C6.93 0 13.86 0 21 0 C20.67 5.94 20.34 11.88 20 18 C21.65 16.68 23.3 15.36 25 14 C29.83971121 12.95689267 33.94111354 13.49016578 38.375 15.625 C43.93122267 20.6520586 45.49968589 24.74544546 46 32 C59.58355103 33.67597991 59.58355103 33.67597991 73 32 C69.95786733 30.47893366 66.71952428 30.62570662 63.375 30.4375 C62.66859375 30.39431641 61.9621875 30.35113281 61.234375 30.30664062 C59.48981463 30.20055249 57.74493303 30.09977111 56 30 C55.505 27.03 55.505 27.03 55 24 C52.36 23.34 49.72 22.68 47 22 C47 14.74 47 7.48 47 0 C62.18 0 77.36 0 93 0 C93 6.93 93 13.86 93 21 C90.36 21.66 87.72 22.32 85 23 C85 23.66 85 24.32 85 25 C85.556875 25.061875 86.11375 25.12375 86.6875 25.1875 C89.94987173 26.33373872 91.68667874 28.49390197 94 31 C93.34 31 92.68 31 92 31 C92.33 31.99 92.66 32.98 93 34 C93.08021999 35.40824893 93.10765977 36.81997231 93.09765625 38.23046875 C93.09443359 39.03291016 93.09121094 39.83535156 93.08789062 40.66210938 C93.07951172 41.49548828 93.07113281 42.32886719 93.0625 43.1875 C93.05798828 44.03248047 93.05347656 44.87746094 93.04882812 45.74804688 C93.03705403 47.83206155 93.0191189 49.91603977 93 52 C92.67 50.68 92.34 49.36 92 48 C91.48050781 48.33773437 90.96101562 48.67546875 90.42578125 49.0234375 C89.72839844 49.46945313 89.03101563 49.91546875 88.3125 50.375 C87.62800781 50.81585938 86.94351563 51.25671875 86.23828125 51.7109375 C81.90074455 54.20899528 78.37615089 55.25388397 73.359375 55.265625 C72.28816406 55.26820313 71.21695313 55.27078125 70.11328125 55.2734375 C69.00339844 55.26570313 67.89351563 55.25796875 66.75 55.25 C65.10837891 55.26160156 65.10837891 55.26160156 63.43359375 55.2734375 C56.97398686 55.25796539 51.24516207 54.66010637 45 53 C44.505 50.03 44.505 50.03 44 47 C43.59007812 47.49371094 43.18015625 47.98742187 42.7578125 48.49609375 C42.21898437 49.13675781 41.68015625 49.77742188 41.125 50.4375 C40.59132813 51.07558594 40.05765625 51.71367187 39.5078125 52.37109375 C37.54308058 54.49361502 36.45738327 54.95507185 33.57421875 55.23828125 C25.70231954 55.44067108 25.70231954 55.44067108 21.8125 53 C21.214375 52.34 20.61625 51.68 20 51 C19.67 51.99 19.34 52.98 19 54 C12.73 54 6.46 54 0 54 C0 48.72 0 43.44 0 38 C-0.66 38 -1.32 38 -2 38 C-2 42.62 -2 47.24 -2 52 C-7.62412985 54.83848701 -12.17334708 55.51990199 -18.4375 55.5 C-19.24509766 55.52835938 -20.05269531 55.55671875 -20.88476562 55.5859375 C-27.11267679 55.60601135 -31.15437576 53.88742559 -36 50 C-41.26016544 44.46298375 -42.47317687 39.24658849 -42.3125 31.78515625 C-41.67516237 26.10488463 -39.3135062 21.90367218 -35.0625 18.125 C-28.09400073 13.28971479 -21.30645287 13.0801894 -13 14 C-7.33077438 16.10099939 -4.80013085 19.24983644 -1 24 C-0.67 16.08 -0.34 8.16 0 0 Z " fill="#0F574F" transform="translate(129,182)"/>
<path d="M0 0 C5.32349429 2.31456274 7.52783785 5.96099714 10 11 C10.4125 10.45730469 10.825 9.91460937 11.25 9.35546875 C15.28640684 4.35500939 18.55700301 1.11576518 25 0 C31.81755191 -0.64403324 39.10873772 -0.94373756 45 3 C47.90363911 5.82353872 50.49414291 8.82102704 53 12 C53.3403125 11.46890625 53.680625 10.9378125 54.03125 10.390625 C57.47183922 5.37614922 60.9285308 1.56088378 67 0 C68.9765625 0.375 68.9765625 0.375 71 1 C72.41366158 1.20895363 73.83060623 1.39690406 75.25 1.5625 C76.4875 1.706875 77.725 1.85125 79 2 C79 2.33 79 2.66 79 3 C78.29875 3.02578125 77.5975 3.0515625 76.875 3.078125 C70.57560636 3.45471918 65.11539511 4.06415482 60 8 C55.94211588 12.97090805 55.41858914 17.06066897 55.6796875 23.4140625 C56.27415689 28.21331535 57.90646176 30.96401641 61.375 34.25 C67.36279651 38.24186434 72.9385655 38.84816113 80 38 C82.90990497 36.92051912 85.30039523 35.57067914 88 34 C88.66 34 89.32 34 90 34 C91.07525194 31.34771188 92.09456151 28.71631546 93 26 C95.0625 24.3125 95.0625 24.3125 97 23 C96.40657694 29.23094212 94.12992245 33.12982419 89.4375 37.25 C82.51098761 42.22288069 75.30203238 41.82015632 67 41 C60.96124477 39.47514933 57.50905708 35.99774796 54 31 C53.67 30.01 53.34 29.02 53 28 C52.64808594 28.60328125 52.29617188 29.2065625 51.93359375 29.828125 C51.43988281 30.62734375 50.94617188 31.4265625 50.4375 32.25 C49.96183594 33.03890625 49.48617187 33.8278125 48.99609375 34.640625 C45.31111131 38.99625982 41.29849207 41.108647 35.6953125 41.6015625 C34.17232273 41.63931168 32.64830766 41.64636905 31.125 41.625 C30.332146 41.61879639 29.53929199 41.61259277 28.72241211 41.60620117 C22.21110291 41.36856215 17.57159613 39.85589937 13 35 C10.9375 32.125 10.9375 32.125 10 30 C9.67 33.63 9.34 37.26 9 41 C2.4 41 -4.2 41 -11 41 C-11 34.4 -11 27.8 -11 21 C-11.99 21 -12.98 21 -14 21 C-15.65285959 24.30571917 -15.1005118 27.995378 -15.0625 31.625 C-15.041875 34.38875 -15.02125 37.1525 -15 40 C-21.27 40 -27.54 40 -34 40 C-34 39.34 -34 38.68 -34 38 C-35.98 38 -37.96 38 -40 38 C-40.12375 36.865625 -40.2475 35.73125 -40.375 34.5625 C-40.58125 33.386875 -40.7875 32.21125 -41 31 C-41.66 30.67 -42.32 30.34 -43 30 C-42.505 33.96 -42.505 33.96 -42 38 C-44.97 38 -47.94 38 -51 38 C-51.495 36.02 -51.495 36.02 -52 34 C-52.45375 34.474375 -52.9075 34.94875 -53.375 35.4375 C-56.28237165 38.23304966 -58.90309397 38.40191302 -62.89453125 38.34375 C-66.78521443 37.70853642 -68.39157143 35.92652961 -71 33 C-71.875 29.6875 -71.875 29.6875 -72 27 C-72.66 27 -73.32 27 -74 27 C-74 28.32 -74 29.64 -74 31 C-75.98 31 -77.96 31 -80 31 C-80 33.31 -80 35.62 -80 38 C-82.64 38 -85.28 38 -88 38 C-88.33 31.07 -88.66 24.14 -89 17 C-83.06 17 -77.12 17 -71 17 C-70.67 17.99 -70.34 18.98 -70 20 C-69.525625 19.505 -69.05125 19.01 -68.5625 18.5 C-64.83997037 16.32095827 -61.22617436 16.42708552 -57 17 C-53.24255788 18.51488423 -53.24255788 18.51488423 -52 21 C-51.67 19.68 -51.34 18.36 -51 17 C-48.54159395 16.97308315 -46.08348118 16.95320198 -43.625 16.9375 C-42.92632812 16.92912109 -42.22765625 16.92074219 -41.5078125 16.91210938 C-36.2265625 16.88671875 -36.2265625 16.88671875 -34 18 C-34 12.39 -34 6.78 -34 1 C-27.4 1 -20.8 1 -14 1 C-13.505 1.99 -13.505 1.99 -13 3 C-12.525625 2.505 -12.05125 2.01 -11.5625 1.5 C-7.76935015 -0.7203804 -4.2963242 -0.56874417 0 0 Z " fill="#130F0B" transform="translate(310,196)"/>
<path d="M0 0 C7.92 0 15.84 0 24 0 C24.33 1.98 24.66 3.96 25 6 C25.66 4.68 26.32 3.36 27 2 C29.97 2 32.94 2 36 2 C36.66 3.32 37.32 4.64 38 6 C38 4.02 38 2.04 38 0 C46.25 0 54.5 0 63 0 C62.39279148 13.2067854 60.17320956 25.96074261 58 39 C50.08 39 42.16 39 34 39 C33.01 35.04 32.02 31.08 31 27 C30.34 30.96 29.68 34.92 29 39 C21.08 39 13.16 39 5 39 C2.57935438 25.88166244 0.50730457 13.31674506 0 0 Z " fill="#BFF27D" transform="translate(25,197)"/>
<path d="M0 0 C13.2 0 26.4 0 40 0 C40 5.28 40 10.56 40 16 C29.25 20 29.25 20 27 20 C27 20.99 27 21.98 27 23 C28.19625 23.0825 29.3925 23.165 30.625 23.25 C35.25111048 23.80874869 38.67260699 25.67260699 42 29 C42.60417565 34.14412413 42.96929144 38.53042911 40.0625 42.9375 C32.23519189 48.2089524 25.1163903 50.17386812 15.75 50.125 C14.66138672 50.13080078 14.66138672 50.13080078 13.55078125 50.13671875 C0.11276507 50.11276507 0.11276507 50.11276507 -2 48 C-2.07319621 45.30345146 -2.09242537 42.63308542 -2.0625 39.9375 C-2.05798828 39.17888672 -2.05347656 38.42027344 -2.04882812 37.63867188 C-2.0370068 35.75908129 -2.01907078 33.87953101 -2 32 C-0.88757935 32.01571045 -0.88757935 32.01571045 0.24731445 32.03173828 C3.60234193 32.07327196 6.95731533 32.09931789 10.3125 32.125 C11.47974609 32.14175781 12.64699219 32.15851563 13.84960938 32.17578125 C15.52700195 32.18544922 15.52700195 32.18544922 17.23828125 32.1953125 C18.7857605 32.21102295 18.7857605 32.21102295 20.36450195 32.22705078 C23.23187592 32.19297515 23.23187592 32.19297515 26 30 C26 28.68 26 27.36 26 26 C22.28570102 24.8838344 18.60838492 24.6875805 14.75 24.4375 C13.48671875 24.35371094 12.2234375 24.26992187 10.921875 24.18359375 C9.47554687 24.09271484 9.47554687 24.09271484 8 24 C8.33 23.34 8.66 22.68 9 22 C11.72265625 21.1484375 11.72265625 21.1484375 15.0625 20.375 C16.16722656 20.11460937 17.27195313 19.85421875 18.41015625 19.5859375 C19.69212891 19.29589844 19.69212891 19.29589844 21 19 C21 18.01 21 17.02 21 16 C14.07 16 7.14 16 0 16 C0 10.72 0 5.44 0 0 Z " fill="#BDFB72" transform="translate(179,185)"/>
<path d="M0 0 C4.29 0 8.58 0 13 0 C13 4.62 13 9.24 13 14 C13.99 14.495 13.99 14.495 15 15 C14.67 15.66 14.34 16.32 14 17 C13.76725791 19.87910588 13.58027243 22.74146495 13.4375 25.625 C13.37272461 26.82769531 13.37272461 26.82769531 13.30664062 28.0546875 C13.20048543 30.0362511 13.09973145 32.01810271 13 34 C8.71 34 4.42 34 0 34 C-0.66 31.03 -1.32 28.06 -2 25 C-2 25.99 -2 26.98 -2 28 C-2 29.32 -2 30.64 -2 32 C-3.98 32 -5.96 32 -8 32 C-8 30.35 -8 28.7 -8 27 C-9.32 26.67 -10.64 26.34 -12 26 C-11.505 29.96 -11.505 29.96 -11 34 C-13.97 34 -16.94 34 -20 34 C-20.495 32.02 -20.495 32.02 -21 30 C-21.45375 30.474375 -21.9075 30.94875 -22.375 31.4375 C-25.28237165 34.23304966 -27.90309397 34.40191302 -31.89453125 34.34375 C-35.78521443 33.70853642 -37.39157143 31.92652961 -40 29 C-40.875 25.6875 -40.875 25.6875 -41 23 C-41.66 23 -42.32 23 -43 23 C-43 24.32 -43 25.64 -43 27 C-44.98 27 -46.96 27 -49 27 C-49 29.31 -49 31.62 -49 34 C-51.64 34 -54.28 34 -57 34 C-57.33 27.07 -57.66 20.14 -58 13 C-52.06 13 -46.12 13 -40 13 C-39.67 13.99 -39.34 14.98 -39 16 C-38.525625 15.505 -38.05125 15.01 -37.5625 14.5 C-33.83997037 12.32095827 -30.22617436 12.42708552 -26 13 C-22.24255788 14.51488423 -22.24255788 14.51488423 -21 17 C-20.67 15.68 -20.34 14.36 -20 13 C-17.54159395 12.97308315 -15.08348118 12.95320198 -12.625 12.9375 C-11.92632812 12.92912109 -11.22765625 12.92074219 -10.5078125 12.91210938 C-5.2265625 12.88671875 -5.2265625 12.88671875 -3 14 C-2.34 15.98 -1.68 17.96 -1 20 C-0.67 13.4 -0.34 6.8 0 0 Z " fill="#49222E" transform="translate(279,200)"/>
<path d="M0 0 C4.95 0 9.9 0 15 0 C14.34 9.24 13.68 18.48 13 28 C13.99 28 14.98 28 16 28 C16.04125 26.989375 16.0825 25.97875 16.125 24.9375 C16.73862705 20.92846996 18.30137053 18.2809577 21.0546875 15.328125 C24.18860985 13.1884993 26.96000799 13.22476415 30.6640625 13.51953125 C34.15216392 14.23698355 35.72888906 15.24713826 38 18 C41.4912223 24.86205763 42.12161496 31.79188094 40.49609375 39.33984375 C39.00809471 43.9058751 37.28774491 46.81051324 33 49 C27.93691876 49.8758213 24.29625911 49.89117814 20 46.9375 C17.68900276 43.5432228 16.86000474 40.98729472 16 37 C15.01 37 14.02 37 13 37 C13.33 40.96 13.66 44.92 14 49 C9.38 49 4.76 49 0 49 C0 32.83 0 16.66 0 0 Z " fill="#ECC86D" transform="translate(409,185)"/>
<path d="M0 0 C4.62 0 9.24 0 14 0 C14.26733677 9.49045539 13.23257977 18.61258446 12 28 C12.99 28 13.98 28 15 28 C15.0825 27.13375 15.165 26.2675 15.25 25.375 C16.39914827 20.20383278 18.60281734 16.9314551 23 14 C27.4155596 13.28887992 30.9588997 13.411552 34.875 15.625 C40.18729478 21.56227064 40.46692453 26.97221016 40.2890625 34.64453125 C39.83196601 39.95055672 38.42113955 43.07131061 35.25 47.375 C32.15352748 49.61134126 29.78972407 49.86702723 26 50 C21.97994601 48.9716141 19.59530909 47.22176301 17 44 C16.33333333 42 15.66666667 40 15 38 C14.01 37.67 13.02 37.34 12 37 C12.165 37.495 12.33 37.99 12.5 38.5 C13.20688818 42.03444089 13.06005155 45.39690701 13 49 C8.71 49 4.42 49 0 49 C0 32.83 0 16.66 0 0 Z " fill="#BAF870" transform="translate(132,185)"/>
<path d="M0 0 C1.0214209 -0.02223633 1.0214209 -0.02223633 2.06347656 -0.04492188 C7.10242635 0.05806396 9.98608071 1.44105521 13.875 4.5625 C18.88366345 10.24800987 19.24406644 13.8034027 19.13671875 21.29296875 C18.75191902 26.10009368 18.07996921 27.89967805 14.875 31.5625 C8.58740667 36.04872079 2.51103287 37.68728389 -5.125 36.5625 C-11.37120987 35.22793327 -14.51067132 32.77138545 -18.125 27.5625 C-20.80179198 22.99121792 -20.73194794 18.73712023 -20.125 13.5625 C-18.86435378 8.95874766 -16.62630568 5.52536754 -12.875 2.5625 C-8.77184402 0.2786679 -4.60720165 0.07142948 0 0 Z " fill="#FBDA59" transform="translate(341.125,198.4375)"/>
<path d="M0 0 C4.02422234 3.1865749 6.70090621 6.04469083 7.68359375 11.125 C8.2847124 16.91938959 8.16290628 22.22986464 5.1953125 27.36328125 C1.45858574 31.717968 -3.55979508 33.69296524 -9.1328125 34.56640625 C-15.30891804 34.83269175 -20.30610998 33.84011764 -25.31640625 30.125 C-29.74839262 25.89195567 -31.46796621 22.03053809 -31.69140625 15.9375 C-31.61463134 10.13331704 -30.34457603 6.34168019 -26.31640625 2.125 C-19.62511222 -3.69279998 -7.48812405 -4.23356837 0 0 Z " fill="#FBDA59" transform="translate(396.31640625,200.875)"/>
<path d="M0 0 C1.21171875 -0.02578125 2.4234375 -0.0515625 3.671875 -0.078125 C8.85537619 0.3972179 12.08422654 1.95819698 15.5625 5.8125 C18.63452586 10.24987069 18.33584418 12.92766103 18.25 18.25 C14.62 18.25 10.99 18.25 7.25 18.25 C6.59 16.6 5.93 14.95 5.25 13.25 C4.08524938 11.87228238 4.08524938 11.87228238 0.875 11.9375 C-2.70527517 11.89651335 -2.70527517 11.89651335 -4.6875 13.875 C-6.00066255 16.81030453 -5.96691118 19.06863606 -5.75 22.25 C-2.0726718 23.40835838 1.41321423 23.38312878 5.25 23.375 C6.466875 23.37757813 7.68375 23.38015625 8.9375 23.3828125 C12.40060276 23.35647738 12.40060276 23.35647738 16.25 22.25 C16.25 26.21 16.25 30.17 16.25 34.25 C7.80537817 36.42925725 -0.63310165 37.88665163 -8.92578125 34.37109375 C-13.1977412 31.74571365 -16.17759469 27.96721592 -17.75 23.25 C-18.23988853 17.68454509 -18.51814541 12.84319048 -16.0625 7.75 C-10.85670277 2.1221111 -7.6191711 0.0964452 0 0 Z " fill="#BEFA73" transform="translate(107.75,198.75)"/>
<path d="M0 0 C0.82822266 -0.00128906 1.65644531 -0.00257813 2.50976562 -0.00390625 C3.37666016 -0.00003906 4.24355469 0.00382813 5.13671875 0.0078125 C5.99201172 0.00394531 6.84730469 0.00007812 7.72851562 -0.00390625 C8.56060547 -0.00261719 9.39269531 -0.00132812 10.25 0 C11.00708252 0.00112793 11.76416504 0.00225586 12.54418945 0.00341797 C14.82421875 0.1328125 14.82421875 0.1328125 19.82421875 1.1328125 C19.82421875 5.0928125 19.82421875 9.0528125 19.82421875 13.1328125 C18.85484375 12.9678125 17.88546875 12.8028125 16.88671875 12.6328125 C9.17604129 11.4493849 9.17604129 11.4493849 1.82421875 13.1328125 C1.82421875 13.7928125 1.82421875 14.4528125 1.82421875 15.1328125 C3.34402344 15.38804687 3.34402344 15.38804687 4.89453125 15.6484375 C6.24622676 15.89249363 7.59778213 16.13732682 8.94921875 16.3828125 C9.614375 16.49238281 10.27953125 16.60195312 10.96484375 16.71484375 C15.67108441 17.59149642 19.07579318 18.98711999 22.82421875 22.1328125 C23.87651946 24.89577642 23.62049104 27.30226794 22.82421875 30.1328125 C20.13898321 32.88871214 17.57276711 35.01561229 13.65698242 35.27807617 C10.77510627 35.30263087 7.89370783 35.31847332 5.01171875 35.3203125 C3.51415039 35.33868164 3.51415039 35.33868164 1.98632812 35.35742188 C0.53516602 35.36032227 0.53516602 35.36032227 -0.9453125 35.36328125 C-1.82807861 35.36739014 -2.71084473 35.37149902 -3.62036133 35.37573242 C-6.17578125 35.1328125 -6.17578125 35.1328125 -11.17578125 33.1328125 C-11.17578125 29.1728125 -11.17578125 25.2128125 -11.17578125 21.1328125 C-10.30953125 21.2978125 -9.44328125 21.4628125 -8.55078125 21.6328125 C-2.47816303 22.52547481 3.70388007 22.20921062 9.82421875 22.1328125 C9.82421875 21.1428125 9.82421875 20.1528125 9.82421875 19.1328125 C8.6434375 18.95105469 7.46265625 18.76929688 6.24609375 18.58203125 C4.68870502 18.32872104 3.13141852 18.07478173 1.57421875 17.8203125 C0.79691406 17.70236328 0.01960938 17.58441406 -0.78125 17.46289062 C-8.39960444 16.19316488 -8.39960444 16.19316488 -11.17578125 13.1328125 C-11.89210932 8.11851604 -11.89210932 8.11851604 -11.17578125 5.1328125 C-7.68133413 1.54640625 -4.9284934 0.00737562 0 0 Z " fill="#FBD95F" transform="translate(466.17578125,198.8671875)"/>
<path d="M0 0 C7.92 0 15.84 0 24 0 C24.33 1.98 24.66 3.96 25 6 C25.66 4.68 26.32 3.36 27 2 C29.97 2 32.94 2 36 2 C36.66 3.32 37.32 4.64 38 6 C38 4.02 38 2.04 38 0 C46.25 0 54.5 0 63 0 C62.39279148 13.2067854 60.17320956 25.96074261 58 39 C50.08 39 42.16 39 34 39 C33.01 35.04 32.02 31.08 31 27 C30.34 30.96 29.68 34.92 29 39 C21.08 39 13.16 39 5 39 C2.57935438 25.88166244 0.50730457 13.31674506 0 0 Z M3 3 C4.16870825 14.50728127 5.732116 25.66058002 8 37 C13.94 37 19.88 37 26 37 C26.67055285 34.06333774 27.33659053 31.12577641 28 28.1875 C28.28617188 26.93743164 28.28617188 26.93743164 28.578125 25.66210938 C28.75859375 24.85966797 28.9390625 24.05722656 29.125 23.23046875 C29.29257812 22.49207764 29.46015625 21.75368652 29.6328125 20.99291992 C30.09059808 18.84602052 30.09059808 18.84602052 30 16 C30.99 16 31.98 16 33 16 C33.12117188 16.92941406 33.24234375 17.85882813 33.3671875 18.81640625 C33.53476562 20.05261719 33.70234375 21.28882813 33.875 22.5625 C34.11863281 24.38974609 34.11863281 24.38974609 34.3671875 26.25390625 C35.02815137 30.5875698 35.02815137 30.5875698 37 37 C42.94 37 48.88 37 55 37 C55.71602081 32.96215405 56.42941013 28.92397569 57.13623047 24.88452148 C57.37721902 23.51185714 57.61971294 22.13945616 57.86376953 20.76733398 C58.21526968 18.78960765 58.56082421 16.81082755 58.90625 14.83203125 C59.11572266 13.64327393 59.32519531 12.4545166 59.54101562 11.22973633 C60.11724864 7.71865406 60.11724864 7.71865406 60 3 C54.06 3 48.12 3 42 3 C42.144375 5.536875 42.28875 8.07375 42.4375 10.6875 C42.48060303 11.47729248 42.52370605 12.26708496 42.56811523 13.08081055 C42.79074758 16.80343045 43.14480624 20.35644339 44 24 C42.68 24 41.36 24 40 24 C39.731875 22.72125 39.46375 21.4425 39.1875 20.125 C37.80387441 11.45924478 37.80387441 11.45924478 34 4 C32.33382885 3.95936168 30.66611905 3.957279 29 4 C24.67342446 13.69866476 24.67342446 13.69866476 23 24 C21.68 24 20.36 24 19 24 C19.144375 23.154375 19.28875 22.30875 19.4375 21.4375 C19.623125 20.303125 19.80875 19.16875 20 18 C20.185625 16.88625 20.37125 15.7725 20.5625 14.625 C21.15976021 10.28482342 21.15976021 10.28482342 21 3 C15.06 3 9.12 3 3 3 Z " fill="#185C54" transform="translate(25,197)"/>
<path d="M0 0 C5.94 0 11.88 0 18 0 C18 5.42360499 17.86972402 9.78165589 17 15 C16.814375 16.134375 16.62875 17.26875 16.4375 18.4375 C16.2209375 19.7059375 16.2209375 19.7059375 16 21 C17.32 21 18.64 21 20 21 C20.0825 20.0925 20.165 19.185 20.25 18.25 C20.95983731 13.176751 22.31905771 4.68094229 26 1 C27.66617115 0.95936168 29.33388095 0.957279 31 1 C31 1.66 31 2.32 31 3 C30.01 3 29.02 3 28 3 C26.77063385 8.35652394 25.93539293 13.18621009 26.12890625 18.70703125 C25.83698493 23.89969239 24.25540446 28.97838216 23 34 C17.06 34 11.12 34 5 34 C4.28488575 29.80125774 3.5717854 25.60227463 2.86376953 21.40234375 C2.62243318 19.97441001 2.37993152 18.54667269 2.13623047 17.11914062 C1.7856502 15.06431098 1.43930052 13.00880569 1.09375 10.953125 C0.88427734 9.71723633 0.67480469 8.48134766 0.45898438 7.20800781 C0 4 0 4 0 0 Z " fill="#C1F27E" transform="translate(28,200)"/>
<path d="M0 0 C4.39649752 2.48497686 6.06158298 5.42076203 8 10 C9.03828108 18.86610611 8.59170148 26.125548 3.25 33.375 C0.15352748 35.61134126 -2.21027593 35.86702723 -6 36 C-9.99628331 34.97769497 -12.54859493 33.32690689 -15 30 C-15.62119527 27.29780058 -15.81439571 24.78406433 -16 22 C-15.37351563 21.93941406 -14.74703125 21.87882812 -14.1015625 21.81640625 C-12.87566406 21.69072266 -12.87566406 21.69072266 -11.625 21.5625 C-10.81289062 21.48128906 -10.00078125 21.40007812 -9.1640625 21.31640625 C-6.95727195 21.10909886 -6.95727195 21.10909886 -5 20 C-5 18.68 -5 17.36 -5 16 C-8.3 15.34 -11.6 14.68 -15 14 C-15.49029622 6.76813075 -15.49029622 6.76813075 -13.125 3.0625 C-9.1956421 -0.75128855 -5.26309467 -0.64762517 0 0 Z " fill="#BFFB73" transform="translate(164,199)"/>
<path d="M0 0 C4.91114581 5.66670671 5.30169257 10.94802906 5.21484375 18.17578125 C4.81314312 23.45631868 3.35778313 27.35420226 -0.0625 31.5 C-4.38149912 33.70544636 -8.25130226 33.89038083 -13 33 C-17.72497841 29.75157735 -18.84341006 26.36237153 -20 21 C-20.99 21 -21.98 21 -23 21 C-23.33 21.66 -23.66 22.32 -24 23 C-24 22.01 -24 21.02 -24 20 C-23.01257813 19.93941406 -22.02515625 19.87882812 -21.0078125 19.81640625 C-19.72648437 19.73261719 -18.44515625 19.64882812 -17.125 19.5625 C-15.84882813 19.48128906 -14.57265625 19.40007812 -13.2578125 19.31640625 C-10.11699848 19.20793973 -10.11699848 19.20793973 -8 18 C-8 16.68 -8 15.36 -8 14 C-12.455 13.01 -12.455 13.01 -17 12 C-16.54713369 7.13168719 -15.41678531 4.51440774 -12 1 C-8.42580122 -1.80829904 -4.14000062 -1.47067784 0 0 Z " fill="#FAD959" transform="translate(445,201)"/>
<path d="M0 0 C6.6 0 13.2 0 20 0 C20 5.94 20 11.88 20 18 C21.32 17.34 22.64 16.68 24 16 C22.93788265 18.77784537 21.79059809 21.41042774 20.4375 24.0625 C19.27083402 26.44655658 18.49664269 28.41745801 18 31 C17.01 31 16.02 31 15 31 C14.69529887 21.55426495 15.85830074 12.3578564 17 3 C12.05 3 7.1 3 2 3 C2 19.17 2 35.34 2 52 C6.62 52 11.24 52 16 52 C15.67 50.35 15.34 48.7 15 47 C14.96175377 44.66698014 14.95425716 42.33288492 15 40 C15.99 40 16.98 40 18 40 C18.25394531 40.62648437 18.50789063 41.25296875 18.76953125 41.8984375 C19.11371094 42.71570313 19.45789063 43.53296875 19.8125 44.375 C20.14894531 45.18710938 20.48539062 45.99921875 20.83203125 46.8359375 C21.94439082 49.30147458 21.94439082 49.30147458 25 51 C29.85476051 51.70764306 33.80188749 51.709087 38.0625 49.1875 C40.19543851 47.06749463 40.19543851 47.06749463 41 44 C41.99 43.67 42.98 43.34 44 43 C43.49607061 47.40938215 42.0379639 49.78843816 39 53 C34.56186442 55.73116036 30.06327349 55.56440367 25 55 C21.875 53.5 21.875 53.5 20 52 C19.505 52.99 19.505 52.99 19 54 C12.73 54 6.46 54 0 54 C-0.33 49.05 -0.66 44.1 -1 39 C-1.99 39.495 -1.99 39.495 -3 40 C-3.08636719 39.05898437 -3.17273438 38.11796875 -3.26171875 37.1484375 C-4.14615864 27.32333969 -4.14615864 27.32333969 -10 20 C-15.34666855 17.0815128 -20.9967352 16.40299694 -27 16 C-26.67 15.34 -26.34 14.68 -26 14 C-18.84840073 13.46251028 -13.12222726 14.03926915 -7 18 C-4.47470947 20.36256298 -2.55481735 22.8903653 -1 26 C-0.67 17.42 -0.34 8.84 0 0 Z " fill="#0B0907" transform="translate(407,182)"/>
<path d="M0 0 C3.1065027 2.95117757 4.93875951 5.49098163 5.11352539 9.79736328 C5.10828857 10.95993652 5.10305176 12.12250977 5.09765625 13.3203125 C5.09443359 14.57714844 5.09121094 15.83398438 5.08789062 17.12890625 C5.07951172 18.44761719 5.07113281 19.76632813 5.0625 21.125 C5.05748489 22.46484211 5.05292201 23.804686 5.04882812 25.14453125 C5.03701095 28.42970657 5.01907501 31.71485881 5 35 C0.38 35 -4.24 35 -9 35 C-8.97679687 33.72382813 -8.95359375 32.44765625 -8.9296875 31.1328125 C-8.91093171 29.4635475 -8.89273131 27.7942762 -8.875 26.125 C-8.85824219 25.28324219 -8.84148437 24.44148438 -8.82421875 23.57421875 C-8.81777344 22.76855469 -8.81132812 21.96289062 -8.8046875 21.1328125 C-8.79421387 20.38918457 -8.78374023 19.64555664 -8.77294922 18.87939453 C-8.8334403 16.75509765 -8.8334403 16.75509765 -11 15 C-13.06874034 14.3574765 -13.06874034 14.3574765 -15 14 C-15.4560284 8.29964499 -14.60412752 5.45215753 -11 1 C-7.53969009 -0.73015495 -3.77455703 -0.61789902 0 0 Z " fill="#FBDA5A" transform="translate(311,199)"/>
<path d="M0 0 C4.29 0 8.58 0 13 0 C13 4.62 13 9.24 13 14 C13.66 14.33 14.32 14.66 15 15 C14.67 15.66 14.34 16.32 14 17 C13.76725791 19.87910588 13.58027243 22.74146495 13.4375 25.625 C13.39431641 26.42679688 13.35113281 27.22859375 13.30664062 28.0546875 C13.20048543 30.0362511 13.09973145 32.01810271 13 34 C8.71 34 4.42 34 0 34 C0 22.78 0 11.56 0 0 Z " fill="#F8D856" transform="translate(279,200)"/>
<path d="M0 0 C6.27 0 12.54 0 19 0 C19 1.65 19 3.3 19 5 C20.32 4.34 21.64 3.68 23 3 C22.690625 3.845625 22.38125 4.69125 22.0625 5.5625 C20.98461179 9.0497854 20.43418696 12.38177535 20 16 C20.78375 16.12375 21.5675 16.2475 22.375 16.375 C25 17 25 17 27 19 C27.65653817 24.9867379 26.87803974 31.07323177 26 37 C30.62 36.67 35.24 36.34 40 36 C40.33 29.07 40.66 22.14 41 15 C41.33 15 41.66 15 42 15 C42 22.92 42 30.84 42 39 C35.73 39 29.46 39 23 39 C23 32.73 23 26.46 23 20 C22.01 20 21.02 20 20 20 C18.34714041 23.30571917 18.8994882 26.995378 18.9375 30.625 C18.958125 33.38875 18.97875 36.1525 19 39 C12.73 39 6.46 39 0 39 C0 38.34 0 37.68 0 37 C-1.98 37 -3.96 37 -6 37 C-6 34.69 -6 32.38 -6 30 C-5.67 30 -5.34 30 -5 30 C-5 31.65 -5 33.3 -5 35 C-3.02 35 -1.04 35 1 35 C0.34 33.02 -0.32 31.04 -1 29 C-0.01 28.34 0.98 27.68 2 27 C2.33 30.3 2.66 33.6 3 37 C7.29 37 11.58 37 16 37 C16 35.80761719 16 34.61523438 16 33.38671875 C16 23.2578125 16 13.12890625 16 3 C11.71 3 7.42 3 3 3 C3.02320313 4.42054688 3.04640625 5.84109375 3.0703125 7.3046875 C3.08906771 9.16145309 3.10726817 11.01822435 3.125 12.875 C3.14175781 13.81214844 3.15851563 14.74929687 3.17578125 15.71484375 C3.18222656 16.61074219 3.18867188 17.50664062 3.1953125 18.4296875 C3.20578613 19.25710449 3.21625977 20.08452148 3.22705078 20.93701172 C3 23 3 23 1 25 C0.24636948 21.64908229 -0.11979937 18.56890188 -0.09765625 15.13671875 C-0.09443359 14.25048828 -0.09121094 13.36425781 -0.08789062 12.45117188 C-0.07951172 11.53916016 -0.07113281 10.62714844 -0.0625 9.6875 C-0.05798828 8.75615234 -0.05347656 7.82480469 -0.04882812 6.86523438 C-0.03709254 4.57679513 -0.01915861 2.28838914 0 0 Z " fill="#0C080B" transform="translate(276,197)"/>
<path d="M0 0 C0.82822266 -0.00128906 1.65644531 -0.00257813 2.50976562 -0.00390625 C3.37666016 -0.00003906 4.24355469 0.00382813 5.13671875 0.0078125 C5.99201172 0.00394531 6.84730469 0.00007812 7.72851562 -0.00390625 C8.56060547 -0.00261719 9.39269531 -0.00132812 10.25 0 C11.00708252 0.00112793 11.76416504 0.00225586 12.54418945 0.00341797 C14.82421875 0.1328125 14.82421875 0.1328125 19.82421875 1.1328125 C19.82421875 5.0928125 19.82421875 9.0528125 19.82421875 13.1328125 C18.85484375 12.9678125 17.88546875 12.8028125 16.88671875 12.6328125 C9.17604129 11.4493849 9.17604129 11.4493849 1.82421875 13.1328125 C1.82421875 13.7928125 1.82421875 14.4528125 1.82421875 15.1328125 C6.77421875 16.1228125 11.72421875 17.1128125 16.82421875 18.1328125 C14.82421875 19.1328125 12.82421875 20.1328125 10.82421875 21.1328125 C10.49421875 20.4728125 10.16421875 19.8128125 9.82421875 19.1328125 C6.27990373 18.41340318 2.74917615 17.8697331 -0.83007812 17.36523438 C-8.41279036 16.18512181 -8.41279036 16.18512181 -11.17578125 13.1328125 C-11.89210932 8.11851604 -11.89210932 8.11851604 -11.17578125 5.1328125 C-7.68133413 1.54640625 -4.9284934 0.00737562 0 0 Z " fill="#FBDA59" transform="translate(466.17578125,198.8671875)"/>
<path d="M0 0 C5.94 0 11.88 0 18 0 C18.33 0.99 18.66 1.98 19 3 C20.65 2.34 22.3 1.68 24 1 C23.67 1.66 23.34 2.32 23 3 C22.34 3 21.68 3 21 3 C19.95023036 6.14930893 19.89868405 8.38814456 19.9375 11.6875 C19.94652344 12.68136719 19.95554688 13.67523438 19.96484375 14.69921875 C19.97644531 15.45847656 19.98804688 16.21773437 20 17 C18.5 15.75 18.5 15.75 17 14 C17 12.68 17 11.36 17 10 C16.34 10 15.68 10 15 10 C15 11.32 15 12.64 15 14 C13.02 14 11.04 14 9 14 C9 16.31 9 18.62 9 21 C6.36 21 3.72 21 1 21 C0.67 14.07 0.34 7.14 0 0 Z " fill="#260E0F" transform="translate(221,213)"/>
<path d="M0 0 C1.8329821 -0.05498946 3.66646845 -0.09323089 5.5 -0.125 C6.5209375 -0.14820313 7.541875 -0.17140625 8.59375 -0.1953125 C12.63515298 0.03641932 16.10165705 0.92371836 20 2 C20.01981934 2.59014893 20.03963867 3.18029785 20.06005859 3.78833008 C20.15534659 6.46350096 20.26500939 9.13789498 20.375 11.8125 C20.4059375 12.74126953 20.436875 13.67003906 20.46875 14.62695312 C20.50742187 15.51962891 20.54609375 16.41230469 20.5859375 17.33203125 C20.63306885 18.56530151 20.63306885 18.56530151 20.68115234 19.82348633 C20.88373622 22.28952937 20.88373622 22.28952937 23 25 C23.43072377 29.4508123 23.60515919 31.86532652 21.5 35.8125 C13.8196208 42.5328318 4.56269753 41.31334082 -5 41 C-5 40.34 -5 39.68 -5 39 C-3.77023437 38.90203125 -2.54046875 38.8040625 -1.2734375 38.703125 C0.35945712 38.55297377 1.99226548 38.40188228 3.625 38.25 C4.43324219 38.188125 5.24148438 38.12625 6.07421875 38.0625 C11.33073369 37.54966927 14.91083509 36.6210888 19 33 C20.14629193 29.93734311 19.58495133 28.35017579 19 25 C15.16109114 21.93471156 10.918356 21.14096569 6.1875 20.3125 C5.49462891 20.18294922 4.80175781 20.05339844 4.08789062 19.91992188 C2.39355236 19.60442441 0.69697842 19.30097353 -1 19 C-1 17.68 -1 16.36 -1 15 C3.48037043 12.75981478 9.37766639 13.65191523 14.0625 15 C15.5165625 15.495 15.5165625 15.495 17 16 C17 12.04 17 8.08 17 4 C15.515 3.855625 14.03 3.71125 12.5 3.5625 C7.98903092 3.11268827 3.49558297 2.58276076 -1 2 C-0.67 1.34 -0.34 0.68 0 0 Z " fill="#110E08" transform="translate(469,196)"/>
<path d="M0 0 C14.52 0 29.04 0 44 0 C44 6.6 44 13.2 44 20 C41.69 20.66 39.38 21.32 37 22 C37 22.66 37 23.32 37 24 C37.556875 24.061875 38.11375 24.12375 38.6875 24.1875 C41.94987173 25.33373872 43.68667874 27.49390197 46 30 C45.01 30.33 44.02 30.66 43 31 C42.113125 30.401875 41.22625 29.80375 40.3125 29.1875 C36.44420864 26.63296797 33.50120374 25.93128353 29 25 C29 24.01 29 23.02 29 22 C30.7902061 21.32942113 32.58221489 20.6636531 34.375 20 C35.37273437 19.62875 36.37046875 19.2575 37.3984375 18.875 C40 18 40 18 42 18 C42 12.72 42 7.44 42 2 C28.8 2 15.6 2 2 2 C2 7.28 2 12.56 2 18 C8.93 18 15.86 18 23 18 C23 18.99 23 19.98 23 21 C16.565 22.98 16.565 22.98 10 25 C10.33 24.01 10.66 23.02 11 22 C11.66 21.67 12.32 21.34 13 21 C8.71 20.67 4.42 20.34 0 20 C0 13.4 0 6.8 0 0 Z " fill="#014D48" transform="translate(177,183)"/>
<path d="M0 0 C1.6065676 0.25620684 3.2102483 0.53055871 4.8125 0.8125 C6.15248047 1.03873047 6.15248047 1.03873047 7.51953125 1.26953125 C10.23646816 2.06963708 11.29220958 2.77502384 13 5 C14.19754817 8.59264452 14.33094958 11.22717474 14 15 C12.625 17.4375 12.625 17.4375 10 19 C5.42200771 19.73764992 1.48979623 19.81584079 -2.625 17.5625 C-4.68112614 13.73062856 -4.78817405 10.25159271 -4 6 C-2 3 -2 3 0 1 C0 0.67 0 0.34 0 0 Z " fill="#F33234" transform="translate(244,213)"/>
<path d="M0 0 C15.18 0 30.36 0 46 0 C46 6.93 46 13.86 46 21 C45.67 21 45.34 21 45 21 C45 14.4 45 7.8 45 1 C30.48 1 15.96 1 1 1 C1 7.6 1 14.2 1 21 C5.62 21 10.24 21 15 21 C14.01 21.99 13.02 22.98 12 24 C11.67 24.99 11.34 25.98 11 27 C11.96421875 26.97679687 12.9284375 26.95359375 13.921875 26.9296875 C15.81679687 26.90261719 15.81679687 26.90261719 17.75 26.875 C19.00296875 26.85179687 20.2559375 26.82859375 21.546875 26.8046875 C24.73165019 26.98482184 26.42659367 27.18347788 29 29 C29.75 31.125 29.75 31.125 30 33 C26.87063825 35.76852718 24.94946187 36.36539759 20.796875 36.29296875 C19.32734375 36.2784668 19.32734375 36.2784668 17.828125 36.26367188 C16.30445313 36.2259668 16.30445313 36.2259668 14.75 36.1875 C13.71875 36.17396484 12.6875 36.16042969 11.625 36.14648438 C9.08280208 36.11117607 6.54166777 36.06186036 4 36 C6.30805008 33.33555016 6.69043678 33.02324365 10.43359375 32.7421875 C11.76864464 32.77135445 13.10342737 32.81616266 14.4375 32.875 C20.30368375 33.13809982 20.30368375 33.13809982 26 32 C22.95786733 30.47893366 19.71952428 30.62570662 16.375 30.4375 C15.66859375 30.39431641 14.9621875 30.35113281 14.234375 30.30664062 C12.48981463 30.20055249 10.74493303 30.09977111 9 30 C8.67 28.02 8.34 26.04 8 24 C5.36 23.34 2.72 22.68 0 22 C0 14.74 0 7.48 0 0 Z " fill="#3E716B" transform="translate(176,182)"/>
<path d="M0 0 C0.99 0 1.98 0 3 0 C4.32 6.93 5.64 13.86 7 21 C12.94 21 18.88 21 25 21 C25 20.34 25 19.68 25 19 C25.66 19 26.32 19 27 19 C27 20.32 27 21.64 27 23 C19.41 23 11.82 23 4 23 C3.01 19.04 2.02 15.08 1 11 C0.34 14.96 -0.32 18.92 -1 23 C-8.59 23 -16.18 23 -24 23 C-24 22.34 -24 21.68 -24 21 C-17.4 21 -10.8 21 -4 21 C-3.67 18.03 -3.34 15.06 -3 12 C-2.52700166 9.80166058 -2.01222578 7.61146272 -1.4375 5.4375 C-1.16808594 4.40496094 -0.89867188 3.37242187 -0.62109375 2.30859375 C-0.41613281 1.54675781 -0.21117188 0.78492188 0 0 Z " fill="#09554A" transform="translate(55,213)"/>
<path d="M0 0 C12.625 -0.25 12.625 -0.25 16 2 C16.1875 4.625 16.1875 4.625 16 7 C12.36077717 7.74438649 9.53875533 8.31065012 6 7 C5.67 6.67 5.34 6.34 5 6 C5 6.99 5 7.98 5 9 C6.32 9.33 7.64 9.66 9 10 C7.68 10 6.36 10 5 10 C5 12.31 5 14.62 5 17 C3.35 17 1.7 17 0 17 C0 11.39 0 5.78 0 0 Z " fill="#F02F2F" transform="translate(261,215)"/>
<path d="M0 0 C3.71818792 1.61660344 5.99889708 3.47424724 8 7 C11.71017959 17.93526617 9.90374628 29.70317149 9 41 C2.4 41 -4.2 41 -11 41 C-11 40.67 -11 40.34 -11 40 C-4.73 40 1.54 40 8 40 C7.34 39.01 6.68 38.02 6 37 C5.74462891 34.27612305 5.74462891 34.27612305 5.7265625 31.01171875 C5.7059375 29.83029297 5.6853125 28.64886719 5.6640625 27.43164062 C5.63814381 24.94733395 5.61984122 22.46293546 5.609375 19.97851562 C5.61900441 11.10929454 5.61900441 11.10929454 1 4 C-1.09633262 3.20863685 -1.09633262 3.20863685 -3.3125 3.5 C-4.09109375 3.5515625 -4.8696875 3.603125 -5.671875 3.65625 C-8.92883031 4.13714273 -11.88318859 4.93895782 -15 6 C-15 4.35 -15 2.7 -15 1 C-14.34 1.66 -13.68 2.32 -13 3 C-12.525625 2.505 -12.05125 2.01 -11.5625 1.5 C-7.76935015 -0.7203804 -4.2963242 -0.56874417 0 0 Z " fill="#282215" transform="translate(310,196)"/>
<path d="M0 0 C4.62 0 9.24 0 14 0 C14 1.98 14 3.96 14 6 C11.03 6 8.06 6 5 6 C5 6.66 5 7.32 5 8 C7.31 8 9.62 8 12 8 C12 8.66 12 9.32 12 10 C9.69 10 7.38 10 5 10 C5 12.31 5 14.62 5 17 C3.35 17 1.7 17 0 17 C0 11.39 0 5.78 0 0 Z " fill="#F53031" transform="translate(223,215)"/>
<path d="M0 0 C4.95618861 -0.35261421 8.82917054 -0.5637327 13.375 1.625 C18.93122267 6.6520586 20.49968589 10.74544546 21 18 C20.67 18 20.34 18 20 18 C19.67 19.98 19.34 21.96 19 24 C19.66 24 20.32 24 21 24 C21 28.95 21 33.9 21 39 C20.67 39 20.34 39 20 39 C19.67 36.69 19.34 34.38 19 32 C17.515 32.495 17.515 32.495 16 33 C16.15855469 32.15308594 16.31710938 31.30617187 16.48046875 30.43359375 C17.52995071 23.49754381 18.69850275 15.11536758 15.1875 8.75 C13.11320337 5.85457761 13.11320337 5.85457761 10 4 C7.02550392 3.75780685 7.02550392 3.75780685 3.8125 3.875 C2.72582031 3.89304688 1.63914063 3.91109375 0.51953125 3.9296875 C-0.31191406 3.95289063 -1.14335937 3.97609375 -2 4 C-1.34 2.68 -0.68 1.36 0 0 Z " fill="#155953" transform="translate(154,196)"/>
<path d="M0 0 C0.76183594 -0.00515625 1.52367187 -0.0103125 2.30859375 -0.015625 C4.77693018 0.2752708 6.420186 1.02024344 8.5625 2.25 C8.5625 3.9 8.5625 5.55 8.5625 7.25 C5.44428643 9.0659434 3.0974669 9.54622187 -0.5 9.5625 C-1.78583984 9.58763672 -1.78583984 9.58763672 -3.09765625 9.61328125 C-5.88234086 9.18093456 -6.78458454 8.49752861 -8.4375 6.25 C-8.3125 4.1875 -8.3125 4.1875 -7.4375 2.25 C-4.32763793 0.17675862 -3.54641613 -0.02392186 0 0 Z " fill="#241E15" transform="translate(340.4375,211.75)"/>
<path d="M0 0 C2.5625 1.5 2.5625 1.5 4 3 C3.67 4.65 3.34 6.3 3 8 C0.09458095 8.96847302 -1.96637454 9.19582812 -5 9.25 C-6.299375 9.28867188 -6.299375 9.28867188 -7.625 9.328125 C-10 9 -10 9 -11.8203125 7.61328125 C-13 6 -13 6 -12.875 3.9375 C-10.50498596 -1.31038822 -4.87071539 -0.60664145 0 0 Z " fill="#17130B" transform="translate(389,212)"/>
<path d="M0 0 C4.62 0 9.24 0 14 0 C14 0.66 14 1.32 14 2 C10.04 2 6.08 2 2 2 C2 17.51 2 33.02 2 49 C1.34 49 0.68 49 0 49 C0 32.83 0 16.66 0 0 Z " fill="#DAB8D8" transform="translate(132,185)"/>
<path d="M0 0 C0.93242099 3.0798148 0.97384688 5.55509459 0.75 8.75 C0.6925229 14.30885635 2.35222151 17.85389111 6 22 C10.90970331 25.7122147 15.21117174 26.12813944 21.25 26.0625 C22.86648438 26.04896484 22.86648438 26.04896484 24.515625 26.03515625 C25.74539063 26.01775391 25.74539063 26.01775391 27 26 C26.67 26.99 26.34 27.98 26 29 C10.49497015 30.10312465 10.49497015 30.10312465 3.671875 24.65234375 C-1.18407862 19.85311856 -2.14250017 15.05247473 -2.1875 8.4375 C-2.20167969 7.48746094 -2.21585937 6.53742188 -2.23046875 5.55859375 C-2 3 -2 3 0 0 Z " fill="#090707" transform="translate(321,208)"/>
<path d="M0 0 C0.495 0.33 0.99 0.66 1.5 1 C1.125 3.4375 1.125 3.4375 0.5 6 C-1.96369532 7.23184766 -3.6894501 7.16732342 -6.4375 7.1875 C-7.31277344 7.20167969 -8.18804687 7.21585938 -9.08984375 7.23046875 C-11.5 7 -11.5 7 -14.5 5 C-14.5 3.68 -14.5 2.36 -14.5 1 C-10.13338636 -1.91107576 -4.77017978 -1.90807191 0 0 Z " fill="#493E24" transform="translate(436.5,214)"/>
<path d="M0 0 C0.66 0.66 1.32 1.32 2 2 C0.92621094 2.02578125 -0.14757812 2.0515625 -1.25390625 2.078125 C-11.92092759 2.145402 -11.92092759 2.145402 -21 7 C-26.06643046 13.2144132 -25.41930361 20.35935644 -25 28 C-28.07635267 24.92364733 -28.2216288 21.99481459 -28.375 17.8125 C-28.29822509 12.00831704 -27.02816978 8.21668019 -23 4 C-16.74101969 -1.4419213 -7.8009208 -0.82014571 0 0 Z " fill="#D5A2D3" transform="translate(393,199)"/>
<path d="M0 0 C13.2 0 26.4 0 40 0 C40 0.66 40 1.32 40 2 C27.46 2 14.92 2 2 2 C2 6.62 2 11.24 2 16 C1.34 16 0.68 16 0 16 C0 10.72 0 5.44 0 0 Z " fill="#D4AEDB" transform="translate(179,185)"/>
<path d="M0 0 C0.33 0 0.66 0 1 0 C1 2.97 1 5.94 1 9 C0.34 7.68 -0.32 6.36 -1 5 C-1 5.99 -1 6.98 -1 8 C-1 9.32 -1 10.64 -1 12 C-2.98 12 -4.96 12 -7 12 C-7 10.35 -7 8.7 -7 7 C-8.32 6.67 -9.64 6.34 -11 6 C-10.67 8.64 -10.34 11.28 -10 14 C-12.64 14 -15.28 14 -18 14 C-18 13.34 -18 12.68 -18 12 C-16.02 12 -14.04 12 -12 12 C-12 8.37 -12 4.74 -12 1 C-9.8653125 1.2475 -9.8653125 1.2475 -7.6875 1.5 C-5.08186701 1.80210238 -2.62834278 2 0 2 C0 1.34 0 0.68 0 0 Z " fill="#2E0F13" transform="translate(278,220)"/>
<path d="M0 0 C0.78246094 -0.01417969 1.56492188 -0.02835938 2.37109375 -0.04296875 C4.5625 0.1875 4.5625 0.1875 7.5625 2.1875 C7.1875 4.625 7.1875 4.625 6.5625 7.1875 C4.2228331 8.35733345 2.72858473 8.3536241 0.125 8.375 C-1.04869141 8.39626953 -1.04869141 8.39626953 -2.24609375 8.41796875 C-4.4375 8.1875 -4.4375 8.1875 -7.4375 6.1875 C-7.0625 3.75 -7.0625 3.75 -6.4375 1.1875 C-4.0978331 0.01766655 -2.60358473 0.0213759 0 0 Z " fill="#43845D" transform="translate(152.4375,212.8125)"/>
<path d="M0 0 C0.33 0 0.66 0 1 0 C1 7.92 1 15.84 1 24 C-5.27 24 -11.54 24 -18 24 C-18 15 -18 15 -17 10.5 C-16.814375 9.6440625 -16.62875 8.788125 -16.4375 7.90625 C-16.2209375 6.96265625 -16.2209375 6.96265625 -16 6 C-15.34 6 -14.68 6 -14 6 C-14.33 11.28 -14.66 16.56 -15 22 C-10.38 21.67 -5.76 21.34 -1 21 C-0.67 14.07 -0.34 7.14 0 0 Z " fill="#000000" transform="translate(317,212)"/>
<path d="M0 0 C0.66 0.66 1.32 1.32 2 2 C0.92621094 2.02578125 -0.14757812 2.0515625 -1.25390625 2.078125 C-11.92092759 2.145402 -11.92092759 2.145402 -21 7 C-25.06914494 12.47186261 -25.7269664 18.33798014 -26 25 C-28.44950621 22.55049379 -28.32271254 21.75276979 -28.375 18.375 C-28.21508734 12.21836257 -26.70926691 7.93028605 -22.515625 3.39453125 C-16.20313408 -1.59121932 -7.61186885 -0.82737705 0 0 Z " fill="#D39FDA" transform="translate(349,199)"/>
<path d="M0 0 C1.81179992 3.19364105 2.49907984 6.06725161 3.0703125 9.68359375 C3.33134766 11.32231445 3.33134766 11.32231445 3.59765625 12.99414062 C3.77167969 14.13044922 3.94570313 15.26675781 4.125 16.4375 C4.30675781 17.56994141 4.48851562 18.70238281 4.67578125 19.86914062 C5.42174163 24.62814349 6.11363812 29.17258653 6 34 C5.34 34 4.68 34 4 34 C3.67 34.66 3.34 35.32 3 36 C2.34647055 32.39718617 1.70364199 28.79253712 1.0625 25.1875 C0.88009766 24.18267578 0.69769531 23.17785156 0.50976562 22.14257812 C-0.67529416 15.44160372 -1.49820506 8.7863787 -2 2 C-1.34 2 -0.68 2 0 2 C0 1.34 0 0.68 0 0 Z " fill="#175659" transform="translate(27,200)"/>
<path d="M0 0 C0.33 0 0.66 0 1 0 C1.20936207 9.27008735 1.05211115 17.90115879 -1 27 C-4.41659491 27.05816623 -7.83306205 27.09365195 -11.25 27.125 C-12.70212891 27.15013672 -12.70212891 27.15013672 -14.18359375 27.17578125 C-15.58544922 27.18544922 -15.58544922 27.18544922 -17.015625 27.1953125 C-17.87446289 27.20578613 -18.73330078 27.21625977 -19.61816406 27.22705078 C-22 27 -22 27 -26 25 C-18.41 25 -10.82 25 -3 25 C-2.814375 22.15375 -2.814375 22.15375 -2.625 19.25 C-2.13277863 12.75125113 -1.18857608 6.40446336 0 0 Z " fill="#A8E074" transform="translate(86,211)"/>
<path d="M0 0 C2 2 2 2 2.375 5.3125 C1.93191573 9.66949535 1.19433844 11.0513799 -2 14 C-7.68015298 17.02213268 -12.31591872 17.43626809 -18.6875 17.3125 C-19.52861328 17.31572266 -20.36972656 17.31894531 -21.23632812 17.32226562 C-25.44953748 17.28551281 -28.27050062 17.11378621 -32 15 C-31.43603516 14.98541748 -30.87207031 14.97083496 -30.29101562 14.95581055 C-27.69338054 14.88055146 -25.09692357 14.78415516 -22.5 14.6875 C-21.1696875 14.65366211 -21.1696875 14.65366211 -19.8125 14.61914062 C-13.40613222 14.36005958 -7.02674518 13.73383436 -2.0625 9.25 C-0.63086339 6.21829894 -0.31897185 3.31730721 0 0 Z " fill="#DEBD62" transform="translate(492,222)"/>
<path d="M0 0 C0.33 0 0.66 0 1 0 C1 4.62 1 9.24 1 14 C0.34 13.01 -0.32 12.02 -1 11 C-2.0828125 11.928125 -2.0828125 11.928125 -3.1875 12.875 C-8.13731639 16.61486127 -12.0131038 17.27602485 -18.1875 17.25 C-20.03408203 17.25773437 -20.03408203 17.25773437 -21.91796875 17.265625 C-25 17 -25 17 -27 15 C-26.01 14.99742187 -25.02 14.99484375 -24 14.9921875 C-17.01965497 14.84284223 -10.96603166 14.70896299 -5.51953125 9.83203125 C-2.98855824 6.78054965 -1.5140696 3.65900153 0 0 Z " fill="#DCBC5E" transform="translate(406,222)"/>
<path d="M0 0 C1.28132813 0.00902344 2.56265625 0.01804688 3.8828125 0.02734375 C4.87023437 0.03894531 5.85765625 0.05054688 6.875 0.0625 C6.875 0.3925 6.875 0.7225 6.875 1.0625 C6.08996094 1.14886719 5.30492188 1.23523438 4.49609375 1.32421875 C-2.12770998 2.2101017 -7.39122223 3.10660949 -12.125 8.0625 C-16.02162584 13.38788865 -15.8256164 19.68253224 -16.125 26.0625 C-19.24341678 21.38487483 -18.71251827 16.53875052 -18.125 11.0625 C-14.16745264 2.85425363 -8.7240291 -0.07930936 0 0 Z " fill="#D6A8E4" transform="translate(108.125,198.9375)"/>
<path d="M0 0 C4.29 0 8.58 0 13 0 C13 0.66 13 1.32 13 2 C9.37 2 5.74 2 2 2 C2 12.56 2 23.12 2 34 C1.34 34 0.68 34 0 34 C0 22.78 0 11.56 0 0 Z " fill="#E7B3CD" transform="translate(279,200)"/>
<path d="M0 0 C-0.3125 1.9375 -0.3125 1.9375 -1 4 C-3.76171975 4.92057325 -5.42490433 5.12851977 -8.2734375 5.1328125 C-9.0984375 5.13410156 -9.9234375 5.13539063 -10.7734375 5.13671875 C-11.63195312 5.13285156 -12.49046875 5.12898437 -13.375 5.125 C-14.22578125 5.12886719 -15.0765625 5.13273438 -15.953125 5.13671875 C-16.78070313 5.13542969 -17.60828125 5.13414062 -18.4609375 5.1328125 C-19.21165527 5.13168457 -19.96237305 5.13055664 -20.73583984 5.12939453 C-23 5 -23 5 -28 4 C-28 8.62 -28 13.24 -28 18 C-28.66 18 -29.32 18 -30 18 C-30 12.72 -30 7.44 -30 2 C-28.23011719 2.02320313 -26.46023437 2.04640625 -24.63671875 2.0703125 C-22.32031671 2.08906879 -20.00391012 2.10726914 -17.6875 2.125 C-15.93663086 2.15013672 -15.93663086 2.15013672 -14.15039062 2.17578125 C-12.47299805 2.18544922 -12.47299805 2.18544922 -10.76171875 2.1953125 C-9.2142395 2.21102295 -9.2142395 2.21102295 -7.63549805 2.22705078 C-4.51025306 1.95780781 -3.04610993 0 0 0 Z " fill="#CAA7D6" transform="translate(207,215)"/>
<path d="M0 0 C0.66 0 1.32 0 2 0 C1.8125 1.8125 1.8125 1.8125 1 4 C-5.74155577 9.15530735 -13.31566854 9.31926935 -21.4375 9.25 C-22.34048828 9.25773438 -23.24347656 9.26546875 -24.17382812 9.2734375 C-29.78647889 9.25718073 -34.61465991 8.58725813 -40 7 C-36.72967221 6.00279595 -33.89877929 5.9469926 -30.4921875 6.078125 C-29.42226562 6.10390625 -28.35234375 6.1296875 -27.25 6.15625 C-25.02292635 6.21811316 -22.79623079 6.29590507 -20.5703125 6.390625 C-12.86582446 6.53807932 -7.50310426 5.19678085 -1 1 C-0.67 0.67 -0.34 0.34 0 0 Z " fill="#AFE874" transform="translate(219,230)"/>
<path d="M0 0 C0.556875 0.28875 1.11375 0.5775 1.6875 0.875 C6.56859985 3.24958912 10.90369896 4.41730641 16.3125 5.125 C17.56675781 5.29257813 18.82101562 5.46015625 20.11328125 5.6328125 C21.06589844 5.75398437 22.01851563 5.87515625 23 6 C23.5625 7.9375 23.5625 7.9375 24 10 C23 11 23 11 20.27734375 11.09765625 C18.62412109 11.08025391 18.62412109 11.08025391 16.9375 11.0625 C15.28041016 11.04896484 15.28041016 11.04896484 13.58984375 11.03515625 C12.73519531 11.02355469 11.88054687 11.01195312 11 11 C11.66 10.01 12.32 9.02 13 8 C11.783125 7.7525 10.56625 7.505 9.3125 7.25 C5.42003586 6.28206931 2.87979712 4.87979712 0 2 C0 1.34 0 0.68 0 0 Z " fill="#090704" transform="translate(453,211)"/>
<path d="M0 0 C1.32 0.33 2.64 0.66 4 1 C3.50886719 1.47953125 3.01773437 1.9590625 2.51171875 2.453125 C0.30045518 6.17856129 0.67525701 9.50602447 0.8125 13.75 C0.82603516 14.54277344 0.83957031 15.33554688 0.85351562 16.15234375 C0.88874777 18.10185564 0.94255179 20.05101626 1 22 C-1.5625718 22.02710123 -4.12485365 22.04688771 -6.6875 22.0625 C-7.40873047 22.07087891 -8.12996094 22.07925781 -8.87304688 22.08789062 C-12.71555382 22.10543632 -16.26639526 21.93524221 -20 21 C-20 20.67 -20 20.34 -20 20 C-13.73 20 -7.46 20 -1 20 C-1.40712661 14.53945807 -1.40712661 14.53945807 -1.83837891 9.08081055 C-1.88397949 8.39801025 -1.92958008 7.71520996 -1.9765625 7.01171875 C-2.02893066 6.31522217 -2.08129883 5.61872559 -2.13525391 4.90112305 C-2 3 -2 3 0 0 Z " fill="#D1B451" transform="translate(296,216)"/>
<path d="M0 0 C0.66 0.66 1.32 1.32 2 2 C1.78314617 6.87921121 0.48112905 9.60813067 -3 13 C-9.62269737 18.12133021 -16.98542577 17.40523128 -25 17 C-25.33 16.34 -25.66 15.68 -26 15 C-24.62328125 14.97873047 -24.62328125 14.97873047 -23.21875 14.95703125 C-15.68452287 14.6642094 -9.66760467 14.32456544 -4 9 C-1.81202329 6.10622436 -0.65904584 3.55884751 0 0 Z " fill="#E2C25B" transform="translate(362,222)"/>
<path d="M0 0 C0.33 0 0.66 0 1 0 C1 1.98 1 3.96 1 6 C1.66 6 2.32 6 3 6 C3.33 7.32 3.66 8.64 4 10 C5.32 9.34 6.64 8.68 8 8 C6.93788265 10.77784537 5.79059809 13.41042774 4.4375 16.0625 C3.27083402 18.44655658 2.49664269 20.41745801 2 23 C1.01 23 0.02 23 -1 23 C-1.1567564 15.28410183 -0.67453101 7.68483539 0 0 Z " fill="#181409" transform="translate(423,190)"/>
<path d="M0 0 C0.66 0 1.32 0 2 0 C2.08074203 2.62561109 2.1403623 5.24875676 2.1875 7.875 C2.21263672 8.62136719 2.23777344 9.36773437 2.26367188 10.13671875 C2.29296875 12.3046875 2.29296875 12.3046875 2 16 C-4.5419218 20.3612812 -14.30820171 19.82984187 -21.87109375 18.4921875 C-22.57363281 18.32976562 -23.27617188 18.16734375 -24 18 C-24 17.67 -24 17.34 -24 17 C-22.84242187 16.95101562 -21.68484375 16.90203125 -20.4921875 16.8515625 C-18.9531033 16.77648522 -17.4140419 16.70093957 -15.875 16.625 C-14.73417969 16.57859375 -14.73417969 16.57859375 -13.5703125 16.53125 C-12.44882813 16.47324219 -12.44882813 16.47324219 -11.3046875 16.4140625 C-10.62390137 16.3826416 -9.94311523 16.3512207 -9.24169922 16.31884766 C-6.31442203 15.97090235 -6.31442203 15.97090235 -1 14 C-0.67 9.38 -0.34 4.76 0 0 Z " fill="#B5EA79" transform="translate(127,220)"/>
<path d="M0 0 C0.33 0 0.66 0 1 0 C1.97236813 4.47289341 1.99367629 7.76212588 1.0234375 12.2578125 C0.83442871 13.14871582 0.64541992 14.03961914 0.45068359 14.95751953 C0.30195801 15.63153809 0.15323242 16.30555664 0 17 C-3.41659491 17.05816623 -6.83306205 17.09365195 -10.25 17.125 C-11.70212891 17.15013672 -11.70212891 17.15013672 -13.18359375 17.17578125 C-14.58544922 17.18544922 -14.58544922 17.18544922 -16.015625 17.1953125 C-16.87446289 17.20578613 -17.73330078 17.21625977 -18.61816406 17.22705078 C-21 17 -21 17 -25 15 C-17.41 15 -9.82 15 -2 15 C-2 12.69 -2 10.38 -2 8 C-1.50663208 5.25564097 -0.75547654 2.69138519 0 0 Z " fill="#98D26F" transform="translate(56,221)"/>
<path d="M0 0 C0.82822266 -0.00128906 1.65644531 -0.00257813 2.50976562 -0.00390625 C3.37666016 -0.00003906 4.24355469 0.00382813 5.13671875 0.0078125 C5.99201172 0.00394531 6.84730469 0.00007812 7.72851562 -0.00390625 C11.88712744 0.00253622 15.77013821 0.07958745 19.82421875 1.1328125 C19.82421875 1.4628125 19.82421875 1.7928125 19.82421875 2.1328125 C18.77363281 2.09800781 17.72304688 2.06320313 16.640625 2.02734375 C4.15347157 1.44660981 4.15347157 1.44660981 -6.86328125 6.5390625 C-8.78109686 8.8678386 -8.84931841 11.19464691 -9.17578125 14.1328125 C-9.83578125 13.8028125 -10.49578125 13.4728125 -11.17578125 13.1328125 C-11.61291094 7.88725621 -11.61291094 7.88725621 -11.17578125 5.1328125 C-7.68133413 1.54640625 -4.9284934 0.00737562 0 0 Z " fill="#DCA8D8" transform="translate(466.17578125,198.8671875)"/>
<path d="M0 0 C0.33 0 0.66 0 1 0 C1 5.94 1 11.88 1 18 C0.67 16.68 0.34 15.36 0 14 C-0.51949219 14.33773437 -1.03898438 14.67546875 -1.57421875 15.0234375 C-10.91907514 21 -10.91907514 21 -17 21 C-16 18 -16 18 -13.85546875 16.90234375 C-12.53482422 16.42474609 -12.53482422 16.42474609 -11.1875 15.9375 C-9.45512133 15.30033266 -7.72579336 14.6547941 -6 14 C-4.88818359 13.63455078 -4.88818359 13.63455078 -3.75390625 13.26171875 C-1.70376635 12.05942501 -1.70376635 12.05942501 -1.171875 9.1796875 C-1.03265625 8.08914062 -0.8934375 6.99859375 -0.75 5.875 C-0.60046875 4.77929688 -0.4509375 3.68359375 -0.296875 2.5546875 C-0.19890625 1.71164063 -0.1009375 0.86859375 0 0 Z " fill="#105C4B" transform="translate(221,216)"/>
<path d="M0 0 C5.28 0 10.56 0 16 0 C16.33 0.99 16.66 1.98 17 3 C18.65 2.34 20.3 1.68 22 1 C21.67 1.66 21.34 2.32 21 3 C20.34 3 19.68 3 19 3 C17.95023036 6.14930893 17.89868405 8.38814456 17.9375 11.6875 C17.94652344 12.68136719 17.95554688 13.67523438 17.96484375 14.69921875 C17.97644531 15.45847656 17.98804688 16.21773437 18 17 C14.86209184 14.148121 14.4168976 12.2523555 14 8 C14 6.02 14 4.04 14 2 C9.38 2 4.76 2 0 2 C0 1.34 0 0.68 0 0 Z " fill="#482B3D" transform="translate(223,213)"/>
<path d="M0 0 C-0.33 0.66 -0.66 1.32 -1 2 C-1.66 2 -2.32 2 -3 2 C-3 2.66 -3 3.32 -3 4 C-2.443125 4.061875 -1.88625 4.12375 -1.3125 4.1875 C1.94987173 5.33373872 3.68667874 7.49390197 6 10 C5.01 10.33 4.02 10.66 3 11 C2.113125 10.401875 1.22625 9.80375 0.3125 9.1875 C-3.55579136 6.63296797 -6.49879626 5.93128353 -11 5 C-11 4.01 -11 3.02 -11 2 C-9.73392393 1.46770674 -8.46189588 0.94955456 -7.1875 0.4375 C-6.47980469 0.14746094 -5.77210938 -0.14257812 -5.04296875 -0.44140625 C-3 -1 -3 -1 0 0 Z " fill="#0B574A" transform="translate(217,203)"/>
<path d="M0 0 C1.41366158 0.20895363 2.83060623 0.39690406 4.25 0.5625 C5.4875 0.706875 6.725 0.85125 8 1 C8 1.33 8 1.66 8 2 C7.29875 2.02578125 6.5975 2.0515625 5.875 2.078125 C-0.48084311 2.45809388 -5.74300855 3.22543031 -11 7 C-13.27537692 9.57183314 -13.27537692 9.57183314 -15 12 C-15.99 12.33 -16.98 12.66 -18 13 C-15.6736027 6.21467455 -12.25187489 2.8007641 -6 -0.3984375 C-3.56151077 -1.13188934 -2.40183988 -0.75872074 0 0 Z " fill="#1D161F" transform="translate(381,197)"/>
<path d="M0 0 C0.33 0.99 0.66 1.98 1 3 C-5.11171944 8.39269362 -10.52216153 9.30960561 -18.375 9.125 C-19.47908203 9.11146484 -19.47908203 9.11146484 -20.60546875 9.09765625 C-22.4037888 9.07430144 -24.20193911 9.03843836 -26 9 C-26 8.34 -26 7.68 -26 7 C-24.7934375 6.91363281 -23.586875 6.82726562 -22.34375 6.73828125 C-10.31686807 5.84618757 -10.31686807 5.84618757 0 0 Z " fill="#0C0B04" transform="translate(490,228)"/>
<path d="M0 0 C-1.26677124 2.53354248 -2.25629673 2.69801435 -4.8125 3.8125 C-9.16413212 5.92993101 -11.97443023 8.17084202 -13.6796875 12.875 C-14.1778302 14.56732039 -14.59594875 16.28278218 -15 18 C-15.66 18 -16.32 18 -17 18 C-17.45858928 12.26763402 -16.65645061 9.44703453 -13 5 C-9.06943482 1.37178599 -5.39314322 -1.79771441 0 0 Z " fill="#0E5351" transform="translate(105,197)"/>
<path d="M0 0 C7.92 0 15.84 0 24 0 C24 2.31 24 4.62 24 7 C23.34 7 22.68 7 22 7 C22 5.35 22 3.7 22 2 C12.595 2.495 12.595 2.495 3 3 C2.67 3.66 2.34 4.32 2 5 C1.34 5 0.68 5 0 5 C0 3.35 0 1.7 0 0 Z " fill="#004D48" transform="translate(25,197)"/>
<path d="M0 0 C0.33 1.32 0.66 2.64 1 4 C1.66 4 2.32 4 3 4 C2.24984418 11.37653219 1.16558465 18.67831776 0 26 C-0.33 24.68 -0.66 23.36 -1 22 C-1.66 22 -2.32 22 -3 22 C-2.01 14.74 -1.02 7.48 0 0 Z " fill="#216B4E" transform="translate(83,210)"/>
<path d="M0 0 C1.41623216 -0.05447047 2.83308191 -0.09300508 4.25 -0.125 C5.03890625 -0.14820313 5.8278125 -0.17140625 6.640625 -0.1953125 C9.20731941 0.0171622 10.7916067 0.71345895 13 2 C13 3.65 13 5.3 13 7 C9.86501708 8.85776765 7.62528568 9.20140476 4 9 C4 8.34 4 7.68 4 7 C7.465 6.505 7.465 6.505 11 6 C10.67 5.34 10.34 4.68 10 4 C6.37 4 2.74 4 -1 4 C-0.67 2.68 -0.34 1.36 0 0 Z " fill="#1F1B0A" transform="translate(336,212)"/>
<path d="M0 0 C0.33 0.99 0.66 1.98 1 3 C-1.31975101 7.28261724 -3.41943556 10.20760522 -8 12 C-11.34983315 12.23155529 -14.64860453 12.17570423 -18 12 C-17.34 11.67 -16.68 11.34 -16 11 C-16 10.34 -16 9.68 -16 9 C-15.31292969 8.89042969 -14.62585938 8.78085938 -13.91796875 8.66796875 C-13.01691406 8.50941406 -12.11585938 8.35085937 -11.1875 8.1875 C-10.29417969 8.03667969 -9.40085937 7.88585937 -8.48046875 7.73046875 C-5.76353184 6.93036292 -4.70779042 6.22497616 -3 4 C-2.67 3.01 -2.34 2.02 -2 1 C-1.34 0.67 -0.68 0.34 0 0 Z " fill="#0E0C05" transform="translate(450,225)"/>
<path d="M0 0 C0.33 0 0.66 0 1 0 C1 2.97 1 5.94 1 9 C-0.98 9.99 -0.98 9.99 -3 11 C-3.86625 11.556875 -3.86625 11.556875 -4.75 12.125 C-8.26883967 13.49343765 -11.23357799 13.24299497 -15 13 C-15.66 12.34 -16.32 11.68 -17 11 C-16.33613281 10.91363281 -15.67226563 10.82726562 -14.98828125 10.73828125 C-9.14643729 9.80870316 -5.74200659 8.91138365 -2 4 C-0.70480005 1.83379456 -0.70480005 1.83379456 0 0 Z " fill="#DBBC57" transform="translate(451,226)"/>
<path d="M0 0 C1.65 0 3.3 0 5 0 C5 0.66 5 1.32 5 2 C4.01 2 3.02 2 2 2 C1.81824219 2.70125 1.63648438 3.4025 1.44921875 4.125 C-0.07999067 9.89678529 -1.80054363 15.44899107 -4 21 C-6.26663812 13.95723155 -3.05240785 6.38230732 0 0 Z " fill="#C9A3D9" transform="translate(54,201)"/>
<path d="M0 0 C0.66 0 1.32 0 2 0 C2 5.94 2 11.88 2 18 C-4 20 -4 20 -8 20 C-8 19.34 -8 18.68 -8 18 C-5.09399739 16.74335022 -3.20395416 16 0 16 C0 10.72 0 5.44 0 0 Z " fill="#BEEC81" transform="translate(222,187)"/>
<path d="M0 0 C0 0.33 0 0.66 0 1 C2.31 1.33 4.62 1.66 7 2 C7 2.33 7 2.66 7 3 C6.07058594 3.02578125 5.14117187 3.0515625 4.18359375 3.078125 C-3.05276273 3.41013718 -8.06496036 3.77952736 -14 8 C-14.99 8.33 -15.98 8.66 -17 9 C-15.49364535 4.78220697 -12.75987578 3.2252326 -9 1 C-5.8035914 -0.06546953 -3.34252724 -0.07427838 0 0 Z " fill="#1F1721" transform="translate(469,196)"/>
<path d="M0 0 C0.33 0 0.66 0 1 0 C1.3125 2.6875 1.3125 2.6875 1 6 C-1.55024365 9.10164769 -3.17699247 10.72566416 -7 12 C-9.72331488 12.23188622 -12.25039269 12.13093368 -15 12 C-15.66 11.34 -16.32 10.68 -17 10 C-16.41992188 9.98582031 -15.83984375 9.97164062 -15.2421875 9.95703125 C-9.13351767 9.58405966 -6.24074761 8.44761335 -2 4 C-0.62745412 1.85019503 -0.62745412 1.85019503 0 0 Z " fill="#B4EB77" transform="translate(173,227)"/>
<path d="M0 0 C0.66 0.66 1.32 1.32 2 2 C0.96875 1.9175 -0.0625 1.835 -1.125 1.75 C-5.77760428 2.05016802 -7.56141077 2.87400979 -11 6 C-12.34257062 8.64476317 -13.14123187 11.13743957 -14 14 C-14.66 14 -15.32 14 -16 14 C-15.88850438 9.34759195 -15.58842507 5.93009124 -13.0625 1.9375 C-8.82196381 -0.7452882 -4.91070111 -0.82569311 0 0 Z " fill="#DAA6D8" transform="translate(442,199)"/>
<path d="M0 0 C0.33 0.66 0.66 1.32 1 2 C-0.216875 2.04125 -1.43375 2.0825 -2.6875 2.125 C-6.10256172 2.53601628 -7.67985382 3.21181965 -9.875 5.875 C-11.25913132 7.91048723 -12.63460034 9.95190051 -14 12 C-14.41271158 7.79034186 -14.42484735 5.64412341 -12.0625 2.0625 C-7.95351764 -0.70477383 -4.80815498 -0.47138774 0 0 Z " fill="#D9A5D4" transform="translate(311,199)"/>
<path d="M0 0 C0.66 0 1.32 0 2 0 C2 1.32 2 2.64 2 4 C-5.26 4 -12.52 4 -20 4 C-20 3.34 -20 2.68 -20 2 C-13.4 2 -6.8 2 0 2 C0 1.34 0 0.68 0 0 Z " fill="#004D48" transform="translate(80,232)"/>
<path d="M0 0 C0.78028564 0.01571045 1.56057129 0.0314209 2.36450195 0.04760742 C3.21206055 0.05727539 4.05961914 0.06694336 4.93286133 0.0769043 C5.81393555 0.10204102 6.69500977 0.12717773 7.6027832 0.15307617 C8.49545898 0.16661133 9.38813477 0.18014648 10.30786133 0.1940918 C12.51094486 0.22943538 14.71280903 0.27877124 16.9152832 0.34057617 C16.9152832 1.33057617 16.9152832 2.32057617 16.9152832 3.34057617 C9.6552832 3.34057617 2.3952832 3.34057617 -5.0847168 3.34057617 C-2.0847168 0.34057617 -2.0847168 0.34057617 0 0 Z " fill="#115354" transform="translate(185.084716796875,214.659423828125)"/>
<path d="M0 0 C1.22589844 0.01353516 1.22589844 0.01353516 2.4765625 0.02734375 C3.41628906 0.04474609 3.41628906 0.04474609 4.375 0.0625 C2.04131274 1.24698489 -0.27929492 2.34291211 -2.6875 3.375 C-5.99948707 5.27763087 -6.97324744 6.67640724 -8.625 10.0625 C-9.016875 10.825625 -9.40875 11.58875 -9.8125 12.375 C-10.2146875 13.2103125 -10.2146875 13.2103125 -10.625 14.0625 C-11.11529622 6.83063075 -11.11529622 6.83063075 -8.75 3.125 C-5.70483388 0.16939759 -4.12760769 -0.05896582 0 0 Z " fill="#D8A9E4" transform="translate(159.625,198.9375)"/>
<path d="M0 0 C0.99 0.66 1.98 1.32 3 2 C2.67 2.99 2.34 3.98 2 5 C-0.75026417 5.05404449 -3.49946203 5.09369306 -6.25 5.125 C-7.02730469 5.14175781 -7.80460937 5.15851563 -8.60546875 5.17578125 C-9.35957031 5.18222656 -10.11367188 5.18867188 -10.890625 5.1953125 C-11.58188477 5.20578613 -12.27314453 5.21625977 -12.98535156 5.22705078 C-15 5 -15 5 -19 3 C-12.73 3 -6.46 3 0 3 C0 2.01 0 1.02 0 0 Z " fill="#BFA351" transform="translate(426,233)"/>
<path d="M0 0 C0.66 0.33 1.32 0.66 2 1 C2 2.65 2 4.3 2 6 C-0.5625718 6.02710123 -3.12485365 6.04688771 -5.6875 6.0625 C-6.7693457 6.07506836 -6.7693457 6.07506836 -7.87304688 6.08789062 C-11.71555382 6.10543632 -15.26639526 5.93524221 -19 5 C-19 4.67 -19 4.34 -19 4 C-12.73 4 -6.46 4 0 4 C0 2.68 0 1.36 0 0 Z " fill="#8FC96F" transform="translate(148,232)"/>
<path d="M0 0 C3.62640835 5.43961252 2.8125985 8.77007816 2 15 C-3.61 15 -9.22 15 -15 15 C-15 14.67 -15 14.34 -15 14 C-10.05 14 -5.1 14 0 14 C0 9.38 0 4.76 0 0 Z " fill="#F2D065" transform="translate(319,223)"/>
<path d="M0 0 C0.73734375 -0.01224609 1.4746875 -0.02449219 2.234375 -0.03710938 C4.15770058 -0.04237395 6.08054263 0.06546553 8 0.1875 C8.66 0.8475 9.32 1.5075 10 2.1875 C8.35451172 2.27837891 8.35451172 2.27837891 6.67578125 2.37109375 C5.22134346 2.45554498 3.76691695 2.54019066 2.3125 2.625 C1.59126953 2.66431641 0.87003906 2.70363281 0.12695312 2.74414062 C-3.66707282 2.96935678 -7.28651492 3.31589305 -11 4.1875 C-10.67 3.1975 -10.34 2.2075 -10 1.1875 C-6.84044583 -0.39227708 -3.46536183 0.00302916 0 0 Z " fill="#DAA8CB" transform="translate(341,198.8125)"/>
<path d="M0 0 C0.33 1.32 0.66 2.64 1 4 C1.78375 4.0825 2.5675 4.165 3.375 4.25 C6 5 6 5 7.3125 7.0625 C7.6528125 8.0215625 7.6528125 8.0215625 8 9 C7.34 9 6.68 9 6 9 C6 10.65 6 12.3 6 14 C5.67 14 5.34 14 5 14 C4.67 12.02 4.34 10.04 4 8 C2.02 8 0.04 8 -2 8 C-2.33 6.68 -2.66 5.36 -3 4 C-2.01 4 -1.02 4 0 4 C0 2.68 0 1.36 0 0 Z " fill="#372E1D" transform="translate(295,209)"/>
<path d="M0 0 C0.66 0 1.32 0 2 0 C1.67 5.28 1.34 10.56 1 16 C0.01 16 -0.98 16 -2 16 C-1.85764543 14.27054347 -1.71095618 12.54144346 -1.5625 10.8125 C-1.48128906 9.84957031 -1.40007812 8.88664063 -1.31640625 7.89453125 C-1.02333849 5.21350398 -0.57296246 2.6337014 0 0 Z " fill="#110D12" transform="translate(301,218)"/>
<path d="M0 0 C5.53846154 0.61538462 5.53846154 0.61538462 7.875 2.5625 C8.431875 3.2740625 8.431875 3.2740625 9 4 C8.34 5.32 7.68 6.64 7 8 C6.34 8 5.68 8 5 8 C5 7.01 5 6.02 5 5 C1.7 4.34 -1.6 3.68 -5 3 C-5 2.67 -5 2.34 -5 2 C-3.35 2 -1.7 2 0 2 C0 1.34 0 0.68 0 0 Z " fill="#1D6551" transform="translate(197,209)"/>
<path d="M0 0 C0.33 0 0.66 0 1 0 C1.33 3.3 1.66 6.6 2 10 C-0.97 10 -3.94 10 -7 10 C-7 7.69 -7 5.38 -7 3 C-6.67 3 -6.34 3 -6 3 C-6 4.65 -6 6.3 -6 8 C-4.02 8 -2.04 8 0 8 C-0.66 6.02 -1.32 4.04 -2 2 C-1.34 1.34 -0.68 0.68 0 0 Z " fill="#26090A" transform="translate(277,224)"/>
<path d="M0 0 C1.09506492 3.28519475 1.09960608 5.73663415 1.0625 9.1875 C1.05347656 10.27417969 1.04445313 11.36085937 1.03515625 12.48046875 C1.02355469 13.31191406 1.01195312 14.14335937 1 15 C0.34 15 -0.32 15 -1 15 C-1.33 15.99 -1.66 16.98 -2 18 C-2 12.39 -2 6.78 -2 1 C-1.34 0.67 -0.68 0.34 0 0 Z " fill="#100E05" transform="translate(294,216)"/>
<path d="M0 0 C0.66 0.33 1.32 0.66 2 1 C1.67 1.99 1.34 2.98 1 4 C4.3 4 7.6 4 11 4 C10.67 4.99 10.34 5.98 10 7 C8.741875 7.04125 7.48375 7.0825 6.1875 7.125 C5.47980469 7.14820313 4.77210938 7.17140625 4.04296875 7.1953125 C2 7 2 7 -1 5 C-0.67 3.35 -0.34 1.7 0 0 Z " fill="#0D5350" transform="translate(146,214)"/>
<path d="M0 0 C0.66 0 1.32 0 2 0 C2 4.95 2 9.9 2 15 C1.67 15 1.34 15 1 15 C0.67 12.69 0.34 10.38 0 8 C-0.99 8.33 -1.98 8.66 -3 9 C-2.5020163 5.26512223 -2.12508244 3.18762365 0 0 Z " fill="#226952" transform="translate(173,220)"/>
<path d="M0 0 C2 2 2 2 2.375 5.3125 C1.94318486 9.55868217 1.02502212 11.06140708 -2 14 C-2.99 14.33 -3.98 14.66 -5 15 C-3.87548273 12.0280615 -2.77706209 9.66559313 -1 7 C-0.60612212 4.67612053 -0.26513915 2.34206251 0 0 Z " fill="#F2D05C" transform="translate(492,222)"/>
<path d="M0 0 C1.4540625 0.0309375 1.4540625 0.0309375 2.9375 0.0625 C3.5 2 3.5 2 3.9375 4.0625 C2.9375 5.0625 2.9375 5.0625 -0.125 5.125 C-1.094375 5.104375 -2.06375 5.08375 -3.0625 5.0625 C-3.625 3.125 -3.625 3.125 -4.0625 1.0625 C-3.0625 0.0625 -3.0625 0.0625 0 0 Z " fill="#482939" transform="translate(249.0625,220.9375)"/>
<path d="M0 0 C1.93742341 -0.02703381 3.87495479 -0.04641125 5.8125 -0.0625 C6.89144531 -0.07410156 7.97039062 -0.08570313 9.08203125 -0.09765625 C12 0 12 0 15 1 C15 1.66 15 2.32 15 3 C9.72 2.67 4.44 2.34 -1 2 C-0.67 1.34 -0.34 0.68 0 0 Z " fill="#070508" transform="translate(469,196)"/>
<path d="M0 0 C3.3 0 6.6 0 10 0 C10.33 0.99 10.66 1.98 11 3 C7.04 3 3.08 3 -1 3 C-0.67 2.01 -0.34 1.02 0 0 Z " fill="#CFAE6E" transform="translate(336,215)"/>
<path d="M0 0 C0.33 0.66 0.66 1.32 1 2 C1.5775 2.103125 2.155 2.20625 2.75 2.3125 C6.03513837 3.31629228 7.71052302 5.51973328 10 8 C9.01 8.33 8.02 8.66 7 9 C4 7.1875 4 7.1875 1 5 C0.01 4.34 -0.98 3.68 -2 3 C-1.34 2.01 -0.68 1.02 0 0 Z " fill="#1B5D56" transform="translate(213,205)"/>
<path d="M0 0 C2.475 0.495 2.475 0.495 5 1 C5.33 2.65 5.66 4.3 6 6 C4.02 6 2.04 6 0 6 C0 4.02 0 2.04 0 0 Z " fill="#F53133" transform="translate(271,226)"/>
<path d="M0 0 C2 2 2 2 2.1875 5.75 C2.1047681 9.23746762 1.68505673 12.57471633 1 16 C0.34 16 -0.32 16 -1 16 C-0.67 10.72 -0.34 5.44 0 0 Z " fill="#CA98D1" transform="translate(303,218)"/>
<path d="M0 0 C0.66 0 1.32 0 2 0 C2.1799928 5.21979128 1.97094808 9.07262981 0 14 C-0.33 14 -0.66 14 -1 14 C-1.02705729 12.22925083 -1.04642195 10.45838289 -1.0625 8.6875 C-1.07410156 7.70136719 -1.08570313 6.71523437 -1.09765625 5.69921875 C-1 3 -1 3 0 0 Z " fill="#ECCB60" transform="translate(427,187)"/>
<path d="M0 0 C0.33 0.99 0.66 1.98 1 3 C-1.92654527 3.97551509 -3.94654996 4.16478088 -7 4.1875 C-8.299375 4.20876953 -8.299375 4.20876953 -9.625 4.23046875 C-12 4 -12 4 -15 2 C-14.16855469 1.93941406 -13.33710937 1.87882813 -12.48046875 1.81640625 C-10.85044922 1.69072266 -10.85044922 1.69072266 -9.1875 1.5625 C-8.10855469 1.48128906 -7.02960938 1.40007812 -5.91796875 1.31640625 C-2.94010095 1.09787539 -2.94010095 1.09787539 0 0 Z " fill="#D7B3D8" transform="translate(123,221)"/>
<path d="M0 0 C2.97 0 5.94 0 9 0 C9.33 0.99 9.66 1.98 10 3 C6.37 3 2.74 3 -1 3 C-0.67 2.01 -0.34 1.02 0 0 Z " fill="#DCB874" transform="translate(380,215)"/>
<path d="M0 0 C0.33 0 0.66 0 1 0 C1.02708567 1.60407328 1.04643483 3.2082785 1.0625 4.8125 C1.07410156 5.70582031 1.08570312 6.59914062 1.09765625 7.51953125 C1 10 1 10 0 13 C-0.66 13 -1.32 13 -2 13 C-2.05447047 11.58376784 -2.09300508 10.16691809 -2.125 8.75 C-2.14820312 7.96109375 -2.17140625 7.1721875 -2.1953125 6.359375 C-1.9828378 3.79268059 -1.28654105 2.2083933 0 0 Z " fill="#0D594A" transform="translate(86,201)"/>
<path d="M0 0 C1.47906892 -0.02689216 2.95827483 -0.04634621 4.4375 -0.0625 C5.26121094 -0.07410156 6.08492187 -0.08570313 6.93359375 -0.09765625 C9 0 9 0 10 1 C10.04063832 2.66617115 10.042721 4.33388095 10 6 C9.34 6 8.68 6 8 6 C7.67 5.01 7.34 4.02 7 3 C4.36 3 1.72 3 -1 3 C-0.67 2.01 -0.34 1.02 0 0 Z " fill="#08504D" transform="translate(52,199)"/>
<path d="M0 0 C-0.33 0.99 -0.66 1.98 -1 3 C-2.74965358 3.05429959 -4.49979787 3.09292823 -6.25 3.125 C-7.22453125 3.14820313 -8.1990625 3.17140625 -9.203125 3.1953125 C-12.0196498 2.99862781 -13.60949036 2.44568916 -16 1 C-13.89594609 0.83191581 -11.79175242 0.66558052 -9.6875 0.5 C-8.51574219 0.4071875 -7.34398437 0.314375 -6.13671875 0.21875 C-4.094806 0.07635011 -2.0468721 0 0 0 Z " fill="#DBAAC4" transform="translate(479,221)"/>
<path d="M0 0 C0.33 0 0.66 0 1 0 C0.67 4.29 0.34 8.58 0 13 C-0.99 12.34 -1.98 11.68 -3 11 C-2.88590407 9.54077307 -2.75834456 8.08259402 -2.625 6.625 C-2.55539063 5.81289062 -2.48578125 5.00078125 -2.4140625 4.1640625 C-2 2 -2 2 0 0 Z " fill="#18634D" transform="translate(54,223)"/>
<path d="M0 0 C-3.42025316 3.42025316 -7.71982025 3.95344801 -12.4375 4.125 C-13.283125 4.08375 -14.12875 4.0425 -15 4 C-14 2 -14 2 -10.875 0.875 C-7.09941262 0.02244801 -3.85361088 -0.15729024 0 0 Z " fill="#CCA3DD" transform="translate(202,205)"/>
<path d="M0 0 C1.65 0.33 3.3 0.66 5 1 C5 6.28 5 11.56 5 17 C4.67 17 4.34 17 4 17 C3.67 12.71 3.34 8.42 3 4 C0.03 3.505 0.03 3.505 -3 3 C-2.01 2.67 -1.02 2.34 0 2 C0 1.34 0 0.68 0 0 Z " fill="#281F20" transform="translate(484,197)"/>
<path d="M0 0 C2.662062 0.3832143 5.32819962 0.68828996 8 1 C8 1.33 8 1.66 8 2 C0.08 2.495 0.08 2.495 -8 3 C-7.67 2.01 -7.34 1.02 -7 0 C-3.64629821 -1.1179006 -3.24364156 -0.87665988 0 0 Z " fill="#2D2130" transform="translate(381,197)"/>
<path d="M0 0 C1.60407328 -0.02708567 3.2082785 -0.04643483 4.8125 -0.0625 C5.70582031 -0.07410156 6.59914063 -0.08570313 7.51953125 -0.09765625 C10 0 10 0 13 1 C12.67 1.99 12.34 2.98 12 4 C7.71 3.34 3.42 2.68 -1 2 C-0.67 1.34 -0.34 0.68 0 0 Z " fill="#040304" transform="translate(381,196)"/>
<path d="M0 0 C5.94 0 11.88 0 18 0 C18 0.33 18 0.66 18 1 C14.04 1 10.08 1 6 1 C6 1.66 6 2.32 6 3 C4.35 3 2.7 3 1 3 C0.67 2.01 0.34 1.02 0 0 Z " fill="#473D18" transform="translate(458,234)"/>
<path d="M0 0 C0.66 0 1.32 0 2 0 C1.6875 1.9375 1.6875 1.9375 1 4 C-2.14930893 5.04976964 -4.38814456 5.10131595 -7.6875 5.0625 C-8.68136719 5.05347656 -9.67523438 5.04445312 -10.69921875 5.03515625 C-11.83810547 5.01775391 -11.83810547 5.01775391 -13 5 C-13 4.67 -13 4.34 -13 4 C-12.14535156 3.79503906 -11.29070312 3.59007812 -10.41015625 3.37890625 C-9.30542969 3.10949219 -8.20070312 2.84007812 -7.0625 2.5625 C-5.40927734 2.16224609 -5.40927734 2.16224609 -3.72265625 1.75390625 C-1.10578746 1.27004275 -1.10578746 1.27004275 0 0 Z " fill="#DDAEE6" transform="translate(205,215)"/>
<path d="M0 0 C0.66 0 1.32 0 2 0 C2.3690205 9.41002278 2.3690205 9.41002278 0 14 C-0.33 14 -0.66 14 -1 14 C-0.67 9.38 -0.34 4.76 0 0 Z " fill="#BCF477" transform="translate(149,187)"/>
<path d="M0 0 C0.66 0 1.32 0 2 0 C2.66 3.3 3.32 6.6 4 10 C3.34 10 2.68 10 2 10 C1.67 10.66 1.34 11.32 1 12 C0.01751476 7.9472484 -0.08159574 4.16138263 0 0 Z " fill="#125456" transform="translate(58,224)"/>
<path d="M0 0 C0.33 0 0.66 0 1 0 C1.76173392 4.3164922 2.16063604 7.74433453 1 12 C0.01 12.33 -0.98 12.66 -2 13 C-1.85851011 11.3954444 -1.71164314 9.79136233 -1.5625 8.1875 C-1.48128906 7.29417969 -1.40007813 6.40085938 -1.31640625 5.48046875 C-1 3 -1 3 0 0 Z " fill="#A8E173" transform="translate(56,221)"/>
<path d="M0 0 C0.66 0.33 1.32 0.66 2 1 C1 4 1 4 -1 5 C-3.6723621 5.13415472 -6.32250488 5.04318541 -9 5 C-9.33 4.34 -9.66 3.68 -10 3 C-9.04287109 2.80083984 -9.04287109 2.80083984 -8.06640625 2.59765625 C-7.24011719 2.42105469 -6.41382813 2.24445313 -5.5625 2.0625 C-4.73878906 1.88847656 -3.91507812 1.71445313 -3.06640625 1.53515625 C-1.02338796 1.19247006 -1.02338796 1.19247006 0 0 Z " fill="#DBA7D7" transform="translate(438,218)"/>
<path d="M0 0 C0.66 0.33 1.32 0.66 2 1 C1 4 1 4 -1 5 C-3.6723621 5.13415472 -6.32250488 5.04318541 -9 5 C-9.33 4.34 -9.66 3.68 -10 3 C-9.04287109 2.80083984 -9.04287109 2.80083984 -8.06640625 2.59765625 C-7.24011719 2.42105469 -6.41382813 2.24445313 -5.5625 2.0625 C-4.73878906 1.88847656 -3.91507813 1.71445313 -3.06640625 1.53515625 C-1.02338796 1.19247006 -1.02338796 1.19247006 0 0 Z " fill="#D4ACDD" transform="translate(160,218)"/>
<path d="M0 0 C0.66 0 1.32 0 2 0 C2.05389087 1.95803507 2.09274217 3.91648909 2.125 5.875 C2.14820313 6.96554688 2.17140625 8.05609375 2.1953125 9.1796875 C2 12 2 12 0 14 C-1.13016601 8.97703996 -0.77916092 5.02125926 0 0 Z " fill="#432838" transform="translate(259,220)"/>
<path d="M0 0 C0.66 0 1.32 0 2 0 C2 1.65 2 3.3 2 5 C-1.13498292 6.85776765 -3.37471432 7.20140476 -7 7 C-7 6.34 -7 5.68 -7 5 C-3.535 4.505 -3.535 4.505 0 4 C-0.33 3.01 -0.66 2.02 -1 1 C-0.67 0.67 -0.34 0.34 0 0 Z " fill="#0A0708" transform="translate(347,214)"/>
<path d="M0 0 C1.03115279 3.26913624 0.9638984 5.86041348 0.5625 9.25 C0.46066406 10.14203125 0.35882813 11.0340625 0.25390625 11.953125 C0.12822266 12.96632812 0.12822266 12.96632812 0 14 C-2 12 -2 12 -2.265625 9.6875 C-2.26046875 8.800625 -2.2553125 7.91375 -2.25 7 C-2.25515625 6.113125 -2.2603125 5.22625 -2.265625 4.3125 C-2 2 -2 2 0 0 Z " fill="#BA8CC3" transform="translate(323,210)"/>
<path d="M0 0 C1.85776765 3.13498292 2.20140476 5.37471432 2 9 C1.34 9 0.68 9 0 9 C-0.33 10.32 -0.66 11.64 -1 13 C-1.33 9.37 -1.66 5.74 -2 2 C-1.34 2 -0.68 2 0 2 C0 1.34 0 0.68 0 0 Z " fill="#2D5F69" transform="translate(27,200)"/>
<path d="M0 0 C-1 3 -1 3 -2.875 4.1875 C-5 5 -5 5 -8 5 C-7.8125 3.125 -7.8125 3.125 -7 1 C-2.66666667 -1.33333333 -2.66666667 -1.33333333 0 0 Z " fill="#28230D" transform="translate(355,232)"/>
<path d="M0 0 C0.33 0 0.66 0 1 0 C1 5.94 1 11.88 1 18 C0.67 16.68 0.34 15.36 0 14 C-1.32 14.33 -2.64 14.66 -4 15 C-3.27876953 14.18789062 -3.27876953 14.18789062 -2.54296875 13.359375 C-0.68676442 10.52102712 -0.51262344 8.61207374 -0.3125 5.25 C-0.21388672 3.77273437 -0.21388672 3.77273437 -0.11328125 2.265625 C-0.07589844 1.51796875 -0.03851563 0.7703125 0 0 Z " fill="#305F41" transform="translate(221,216)"/>
<path d="M0 0 C3.3 0 6.6 0 10 0 C9.34 1.98 8.68 3.96 8 6 C7.01 5.67 6.02 5.34 5 5 C5.66 5 6.32 5 7 5 C7 4.01 7 3.02 7 2 C4.69 2 2.38 2 0 2 C0 1.34 0 0.68 0 0 Z " fill="#090101" transform="translate(228,221)"/>
<path d="M0 0 C1.98 0 3.96 0 6 0 C6 0.33 6 0.66 6 1 C8.31 1.33 10.62 1.66 13 2 C13 2.33 13 2.66 13 3 C8.38 3 3.76 3 -1 3 C-0.67 2.01 -0.34 1.02 0 0 Z " fill="#2B202E" transform="translate(463,196)"/>
<path d="M0 0 C2.64 0 5.28 0 8 0 C7.67 0.99 7.34 1.98 7 3 C4.03 3 1.06 3 -2 3 C-1.34 2.67 -0.68 2.34 0 2 C0 1.34 0 0.68 0 0 Z " fill="#241F0E" transform="translate(434,234)"/>
<path d="M0 0 C1.41750563 0.11509661 2.83401169 0.24253658 4.25 0.375 C5.03890625 0.44460937 5.8278125 0.51421875 6.640625 0.5859375 C9.085877 1.01507113 10.84836903 1.78600638 13 3 C11.02 3.66 9.04 4.32 7 5 C6.67 4.34 6.34 3.68 6 3 C2.97065509 2.34227572 2.97065509 2.34227572 0 2 C0 1.34 0 0.68 0 0 Z " fill="#BD988A" transform="translate(470,215)"/>
<path d="M0 0 C0.66 0 1.32 0 2 0 C1.67 1.32 1.34 2.64 1 4 C-2.96 4 -6.92 4 -11 4 C-11 3.67 -11 3.34 -11 3 C-10.28972656 2.86722656 -9.57945312 2.73445312 -8.84765625 2.59765625 C-7.92855469 2.42105469 -7.00945312 2.24445313 -6.0625 2.0625 C-4.68771484 1.80146484 -4.68771484 1.80146484 -3.28515625 1.53515625 C-1.04710156 1.22285012 -1.04710156 1.22285012 0 0 Z " fill="#DAA5DE" transform="translate(349,218)"/>
<path d="M0 0 C0.66 0 1.32 0 2 0 C1.67 1.32 1.34 2.64 1 4 C-2.96 4 -6.92 4 -11 4 C-11 3.67 -11 3.34 -11 3 C-10.28972656 2.86722656 -9.57945312 2.73445312 -8.84765625 2.59765625 C-7.92855469 2.42105469 -7.00945312 2.24445313 -6.0625 2.0625 C-4.68771484 1.80146484 -4.68771484 1.80146484 -3.28515625 1.53515625 C-1.04710156 1.22285012 -1.04710156 1.22285012 0 0 Z " fill="#DDA7E1" transform="translate(393,218)"/>
<path d="M0 0 C1.670625 0.061875 1.670625 0.061875 3.375 0.125 C3.705 1.115 4.035 2.105 4.375 3.125 C1.075 2.795 -2.225 2.465 -5.625 2.125 C-3.625 0.125 -3.625 0.125 0 0 Z " fill="#115B4D" transform="translate(182.625,233.875)"/>
<path d="M0 0 C0.66 0.33 1.32 0.66 2 1 C1.67 1.99 1.34 2.98 1 4 C-2.5625 5.1875 -2.5625 5.1875 -6 6 C-6 4.35 -6 2.7 -6 1 C-5.34 1.66 -4.68 2.32 -4 3 C-2.68 2.01 -1.36 1.02 0 0 Z " fill="#342734" transform="translate(301,196)"/>
<path d="M0 0 C0.66 0.66 1.32 1.32 2 2 C1.625 5.125 1.625 5.125 1 8 C-0.32 8.33 -1.64 8.66 -3 9 C-2.01 6.03 -1.02 3.06 0 0 Z " fill="#DEC054" transform="translate(362,222)"/>
<path d="M0 0 C0.33 0 0.66 0 1 0 C1.33 3.63 1.66 7.26 2 11 C-1.0580872 7.9419128 -1.69074569 7.12339076 -2 3 C-1.34 2.01 -0.68 1.02 0 0 Z " fill="#2D1B26" transform="translate(239,219)"/>
<path d="M0 0 C2.31 0 4.62 0 7 0 C5.9375 1.5 5.9375 1.5 4 3 C0.3125 3.1875 0.3125 3.1875 -3 3 C-2.01 2.67 -1.02 2.34 0 2 C0 1.34 0 0.68 0 0 Z " fill="#211A1B" transform="translate(382,218)"/>
<path d="M0 0 C0.99 0.33 1.98 0.66 3 1 C3 3.31 3 5.62 3 8 C1.5 6.8125 1.5 6.8125 0 5 C-0.1875 2.3125 -0.1875 2.3125 0 0 Z " fill="#B27BAE" transform="translate(267,226)"/>
<path d="M0 0 C-0.33 0.66 -0.66 1.32 -1 2 C-3.97 2 -6.94 2 -10 2 C-6.86358686 -1.13641314 -4.14410883 -1.38136961 0 0 Z " fill="#0B0907" transform="translate(435,219)"/>
<path d="M0 0 C0.33 1.32 0.66 2.64 1 4 C1.66 4 2.32 4 3 4 C3 5.32 3 6.64 3 8 C2.34 8 1.68 8 1 8 C0.67 8.99 0.34 9.98 0 11 C0 7.37 0 3.74 0 0 Z " fill="#23635A" transform="translate(87,211)"/>
<path d="M0 0 C0.66 0 1.32 0 2 0 C1.25 6.625 1.25 6.625 -1 10 C-1.125 3.375 -1.125 3.375 0 0 Z " fill="#B2E976" transform="translate(88,201)"/>
<path d="M0 0 C0.33 0.66 0.66 1.32 1 2 C-3.75 6.875 -3.75 6.875 -6 8 C-4.73058503 4.08597051 -3.48832306 2.20927127 0 0 Z " fill="#FCD866" transform="translate(361,229)"/>
<path d="M0 0 C-0.99 1.485 -0.99 1.485 -2 3 C-4.625 3.1875 -4.625 3.1875 -7 3 C-7.33 2.34 -7.66 1.68 -8 1 C-2.25 -1.125 -2.25 -1.125 0 0 Z " fill="#E9CA56" transform="translate(488,235)"/>
</svg>
